<svg width="208" height="187" viewBox="0 0 208 187" fill="none" xmlns="http://www.w3.org/2000/svg">
<path d="M71.6923 37.0033V0H8V149H16.3077V10.3955L46.3151 7.40066L46.448 7.52894L46.5865 7.37599L61.496 5.89586L61.6622 6.05867L61.8394 5.86132L70.0308 5.02752V37.0033H61.1692V40.9503H80V37.0033H71.6923ZM28.8025 2.58037L33.7871 7.15891L23.5077 8.18513L28.8025 2.58037ZM22.0788 7.40066L17.2271 1.48013H27.6726L22.0788 7.40066ZM29.9157 1.48013H40.1231L35.2049 6.3103L29.9157 1.48013ZM70.0308 2.10179V3.53752L68.7348 3.66579L70.0308 2.10179ZM67.2948 2.91586L65.8049 1.48013H68.48L67.2948 2.91586ZM63.6172 1.48013L61.5735 3.76447L59.2308 1.48013H63.6172ZM57.0431 1.48013L54.5785 4.23811L51.8757 1.48013H57.0431ZM49.7102 1.48013L46.3428 5.25941L42.3717 1.48013H49.7102ZM16.3077 2.86652L20.8991 8.44662L16.3077 8.90547V2.86652ZM36.8886 6.84808L41.2308 2.5705L44.8862 6.04881L36.8886 6.84808ZM50.8012 2.63463L53.3268 5.20513L48.0431 5.73305L50.8012 2.63463ZM56.0849 4.93377L58.1508 2.62477L60.1114 4.53414L56.0849 4.93377ZM64.7249 2.61983L66.0874 3.94702L63.3182 4.22331L64.7249 2.61983Z" fill="#ECEFF1"/>
<path d="M53.2805 64.3482H43.0115V59.4281H41.5445V64.3482H31.7646V55H29.8086V157.831H55.2365V57.9521H53.2805V64.3482ZM41.5445 72.2204H31.7646V66.8083H41.5445V72.2204ZM53.2805 72.2204H43.0115V66.8083H53.2805V72.2204Z" fill="#ECEFF1"/>
<path d="M204 162V137.945H201.863V126.482H198.733V86.6293H194.21V81.4855L184.562 77.1551V71.9737H183.222V86.6293H181.35V126.482H179.482V105.526H174.401V94.7259H172.983V126.482H169.125V114.398H166.582V111.309H160.699V100.768H157.477V93.3107H153.516V82.4494H152.103V93.3107H148.142V100.768H144.919V111.309H139.037V114.398H136.499V126.482H133.487V111.309H127.604V78.6597H125.731V75.0581H113.164V78.6597H110.489V102.315H99.7897V104.628H95.78V106.429V112.829V115.682H88.5623V84.8285H86.1516V78.2695H80.9389V55H79.467V78.2695H75.7262V84.8285H53.7751V82.6704H52.4401V97.3261H50.5672V97.5847H49.4425V112.24H47.5697V116.223H43.6137V105.427H42.1956V131.137H40.621V120.337H39.2029V137.179H38.3374V125.095H35.7995V122.011H29.9169V111.469H26.6944V104.012H22.7335V93.1461H21.3203V104.012H17.3594V111.469H14.1369V122.011H8.25428V125.095H5.71638V136.925H5.25672V137.179H4V162H204Z" fill="#ECEFF1"/>
<path d="M1 162H75" stroke="#E0E3E6" stroke-width="0.5" stroke-linecap="round"/>
<path d="M95 162H207" stroke="#E0E3E6" stroke-width="0.5" stroke-linecap="round"/>
<path d="M80 162H89" stroke="#E0E3E6" stroke-width="0.5" stroke-linecap="round"/>
<ellipse cx="103.685" cy="166.565" rx="91.6854" ry="19.9551" fill="#EEE4B0" fill-opacity="0.75"/>
<ellipse cx="103.788" cy="166.994" rx="57.2783" ry="9.01007" fill="#212529"/>
<path fill-rule="evenodd" clip-rule="evenodd" d="M155.889 170.743C159.213 169.601 161.066 168.332 161.066 166.994C161.066 162.018 135.422 157.984 103.788 157.984C72.1541 157.984 46.5098 162.018 46.5098 166.994C46.5098 168.716 49.5793 170.325 54.9046 171.693C63.9467 168.588 83.8752 166.431 107.006 166.431C127.695 166.431 145.823 168.156 155.889 170.743Z" fill="#566370"/>
<path d="M33.47 139.691L40.0626 162.62H22.749L29.3416 139.691C29.4963 139.27 29.7762 138.906 30.1438 138.648C30.5136 138.389 30.9542 138.25 31.4058 138.25C31.8574 138.25 32.298 138.389 32.6679 138.648C33.0354 138.906 33.3153 139.27 33.47 139.691Z" fill="#E5D050" stroke="#1E62A1" stroke-width="0.5"/>
<path d="M34.2958 142.554L35.56 146.957H27.2518L28.516 142.554H34.2958Z" fill="#F4F7F9" stroke="#1E62A1" stroke-width="0.5"/>
<path d="M36.6296 150.687L37.8982 155.095H24.9138L26.1781 150.687H36.6296Z" fill="#F4F7F9" stroke="#1E62A1" stroke-width="0.5"/>
<path d="M19.25 163.788V162.74H43.559V163.788H19.25Z" fill="#04447F" stroke="#04447F" stroke-width="0.5"/>
<path d="M85.935 111.841L82.0625 111.811L81.5123 182.236L85.3848 182.266L85.935 111.841Z" fill="#1E62A1" stroke="#1E62A1"/>
<mask id="mask0_1144_129378" style="mask-type:luminance" maskUnits="userSpaceOnUse" x="69" y="116" width="61" height="51">
<path d="M108.573 154.883L102.052 166.742L69.2255 166.201L69.4485 116.803L129.442 116.918L108.573 154.883Z" fill="white"/>
</mask>
<g mask="url(#mask0_1144_129378)">
<path d="M117.673 137.5L109.574 137.492L119.435 119.767L119.444 119.767L127.324 119.772L117.673 137.5Z" fill="white" stroke="#1E62A1"/>
<path d="M119.435 119.767L109.574 137.492L109.565 137.491L96.4862 137.468L106.347 119.752L106.356 119.753L119.435 119.767Z" fill="#E5D050" stroke="#1E62A1"/>
<path d="M106.347 119.752L96.4865 137.468L83.3984 137.444L93.2587 119.738L106.347 119.752Z" fill="white" stroke="#1E62A1"/>
<path d="M93.2586 119.738L83.3983 137.444L70.7394 137.427L70.7524 136.64L80.1703 119.724L93.2586 119.738Z" fill="#E5D050" stroke="#1E62A1"/>
<path d="M80.1707 119.724L70.7528 136.64L71.0318 119.717L80.1707 119.724Z" fill="white" stroke="#1E62A1"/>
<path d="M91.8762 145.75L82.0157 163.465L70.3109 163.445L70.3531 160.884L78.7879 145.736L91.8762 145.75Z" fill="#E5D050" stroke="#1E62A1"/>
<path d="M104.964 145.764L95.094 163.489L82.0155 163.465L91.8759 145.75L104.964 145.764Z" fill="white" stroke="#1E62A1"/>
<path d="M103.183 163.498L95.0937 163.489L104.964 145.764L112.882 145.77L103.183 163.498Z" fill="#E5D050" stroke="#1E62A1"/>
<path d="M78.7873 145.736L70.3525 160.884L70.6024 145.726L78.7873 145.736Z" fill="white" stroke="#1E62A1"/>
</g>
<path d="M83.9716 112.56C85.8415 112.591 87.3824 111.091 87.4134 109.211C87.4445 107.33 85.9538 105.78 84.0839 105.749C82.2141 105.718 80.6731 107.218 80.6421 109.099C80.6111 110.98 82.1017 112.53 83.9716 112.56Z" fill="#E5D050" stroke="#1E62A1"/>
<path d="M165.492 102.808L161.62 102.891L163.137 173.302L167.008 173.218L165.492 102.808Z" fill="#1E62A1" stroke="#1E62A1"/>
<path d="M163.55 103.589C165.42 103.565 166.916 102.021 166.892 100.14C166.867 98.2589 165.332 96.7535 163.462 96.7775C161.592 96.8016 160.096 98.346 160.12 100.227C160.144 102.108 161.68 103.613 163.55 103.589Z" fill="#E5D050" stroke="#1E62A1"/>
<mask id="mask1_1144_129378" style="mask-type:luminance" maskUnits="userSpaceOnUse" x="113" y="106" width="68" height="53">
<path d="M180.284 157.139L179.639 106.971L139.046 108.165L113.13 158.771L180.284 157.139Z" fill="white"/>
</mask>
<g mask="url(#mask1_1144_129378)">
<path d="M168.385 110.196L159.03 128.222L145.947 128.583L155.292 110.566L168.385 110.196Z" fill="white" stroke="#1E62A1"/>
<path d="M155.292 110.566L145.947 128.583L132.863 128.943L142.209 110.936L155.292 110.566Z" fill="#E5D050" stroke="#1E62A1"/>
<path d="M137.566 111.063L142.21 110.936L132.864 128.943L128.344 129.068L137.566 111.063Z" fill="white" stroke="#1E62A1"/>
<path d="M132.864 128.943L128.63 129.074L137.852 111.069L142.21 110.936L132.864 128.943Z" fill="white" stroke="#1E62A1"/>
<path d="M124.579 137.455L128.508 137.347L119.162 155.354L115.224 155.462L124.579 137.455Z" fill="#E5D050" stroke="#1E62A1"/>
<path d="M141.591 136.987L132.245 154.994L119.162 155.354L128.508 137.347L141.591 136.987Z" fill="white" stroke="#1E62A1"/>
<path d="M154.674 136.617L145.328 154.633L132.245 154.994L141.591 136.987L141.6 136.977L154.674 136.617Z" fill="#E5D050" stroke="#1E62A1"/>
<path d="M167.757 136.247L158.411 154.264L145.328 154.633L154.674 136.617L167.757 136.247Z" fill="white" stroke="#1E62A1"/>
<path d="M177.736 141.531L177.736 141.541L171.322 153.906L171.313 153.906L158.411 154.264L167.756 136.247L177.645 135.967L177.736 141.531Z" fill="#E5D050" stroke="#1E62A1"/>
<path d="M177.941 153.725L171.323 153.906L177.736 141.541L177.941 153.725Z" fill="white" stroke="#1E62A1"/>
<path d="M177.437 117.593L172.113 127.862L159.03 128.222L168.385 110.196L177.31 109.947L177.437 117.593Z" fill="#E5D050" stroke="#1E62A1"/>
<path d="M177.606 127.705L172.114 127.862L177.438 117.593L177.606 127.705Z" fill="white" stroke="#1E62A1"/>
</g>
</svg>
