<svg width="208" height="196" viewBox="0 0 208 196" fill="none" xmlns="http://www.w3.org/2000/svg">
<path d="M71.6923 37.0033V0H8V149H16.3077V10.3955L46.3151 7.40066L46.448 7.52894L46.5865 7.37599L61.496 5.89586L61.6622 6.05867L61.8394 5.86132L70.0308 5.02752V37.0033H61.1692V40.9503H80V37.0033H71.6923ZM28.8025 2.58037L33.7871 7.15891L23.5077 8.18513L28.8025 2.58037ZM22.0788 7.40066L17.2271 1.48013H27.6726L22.0788 7.40066ZM29.9157 1.48013H40.1231L35.2049 6.3103L29.9157 1.48013ZM70.0308 2.10179V3.53752L68.7348 3.66579L70.0308 2.10179ZM67.2948 2.91586L65.8049 1.48013H68.48L67.2948 2.91586ZM63.6172 1.48013L61.5735 3.76447L59.2308 1.48013H63.6172ZM57.0431 1.48013L54.5785 4.23811L51.8757 1.48013H57.0431ZM49.7102 1.48013L46.3428 5.25941L42.3717 1.48013H49.7102ZM16.3077 2.86652L20.8991 8.44662L16.3077 8.90547V2.86652ZM36.8886 6.84808L41.2308 2.5705L44.8862 6.04881L36.8886 6.84808ZM50.8012 2.63463L53.3268 5.20513L48.0431 5.73305L50.8012 2.63463ZM56.0849 4.93377L58.1508 2.62477L60.1114 4.53414L56.0849 4.93377ZM64.7249 2.61983L66.0874 3.94702L63.3182 4.22331L64.7249 2.61983Z" fill="#ECEFF1"/>
<path d="M53.2805 64.3482H43.0115V59.4281H41.5445V64.3482H31.7646V55H29.8086V157.831H55.2365V57.9521H53.2805V64.3482ZM41.5445 72.2204H31.7646V66.8083H41.5445V72.2204ZM53.2805 72.2204H43.0115V66.8083H53.2805V72.2204Z" fill="#ECEFF1"/>
<path d="M204 162V137.945H201.863V126.482H198.733V86.6293H194.21V81.4855L184.562 77.1551V71.9737H183.222V86.6293H181.35V126.482H179.482V105.526H174.401V94.7259H172.983V126.482H169.125V114.398H166.582V111.309H160.699V100.768H157.477V93.3107H153.516V82.4494H152.103V93.3107H148.142V100.768H144.919V111.309H139.037V114.398H136.499V126.482H133.487V111.309H127.604V78.6597H125.731V75.0581H113.164V78.6597H110.489V102.315H99.7897V104.628H95.78V106.429V112.829V115.682H88.5623V84.8285H86.1516V78.2695H80.9389V55H79.467V78.2695H75.7262V84.8285H53.7751V82.6704H52.4401V97.3261H50.5672V97.5847H49.4425V112.24H47.5697V116.223H43.6137V105.427H42.1956V131.137H40.621V120.337H39.2029V137.179H38.3374V125.095H35.7995V122.011H29.9169V111.469H26.6944V104.012H22.7335V93.1461H21.3203V104.012H17.3594V111.469H14.1369V122.011H8.25428V125.095H5.71638V136.925H5.25672V137.179H4V162H204Z" fill="#ECEFF1"/>
<path d="M1 162H75" stroke="#E0E3E6" stroke-width="0.5" stroke-linecap="round"/>
<path d="M95 162H207" stroke="#E0E3E6" stroke-width="0.5" stroke-linecap="round"/>
<path d="M80 162H89" stroke="#E0E3E6" stroke-width="0.5" stroke-linecap="round"/>
<path d="M196.5 166.521H81.5L74.5 176C69.5 180.5 45 194.5 26 195C21.5 194.007 23 190.479 14.5 181C7.46408 173.154 10 167 9.99999 165" stroke="#95959F" stroke-width="1.3" stroke-miterlimit="10" stroke-linecap="round"/>
<path d="M160.967 140.101H129.137V146.687H160.967V140.101Z" fill="#83ABDE" stroke="#04447F" stroke-miterlimit="10"/>
<path d="M101.115 159.793C103.218 159.793 104.923 158.087 104.923 155.984C104.923 153.88 103.218 152.175 101.115 152.175C99.0111 152.175 97.3058 153.88 97.3058 155.984C97.3058 158.087 99.0111 159.793 101.115 159.793Z" fill="#263238"/>
<path d="M145.513 159.793C147.617 159.793 149.322 158.087 149.322 155.984C149.322 153.88 147.617 152.175 145.513 152.175C143.409 152.175 141.704 153.88 141.704 155.984C141.704 158.087 143.409 159.793 145.513 159.793Z" fill="#263238"/>
<path d="M189.911 159.793C192.015 159.793 193.72 158.087 193.72 155.984C193.72 153.88 192.015 152.175 189.911 152.175C187.808 152.175 186.103 153.88 186.103 155.984C186.103 158.087 187.808 159.793 189.911 159.793Z" fill="#263238"/>
<path fill-rule="evenodd" clip-rule="evenodd" d="M100.933 146.687H189.403C194.437 146.687 198.517 150.768 198.517 155.802C198.517 160.836 194.437 164.916 189.403 164.916H100.933C95.8991 164.916 91.8182 160.836 91.8182 155.802C91.8182 150.768 95.8991 146.687 100.933 146.687ZM100.557 150.086H189.773C192.93 150.086 195.489 152.645 195.489 155.802C195.489 158.958 192.93 161.517 189.773 161.517H100.557C97.4007 161.517 94.8418 158.958 94.8418 155.802C94.8418 152.645 97.4007 150.086 100.557 150.086Z" fill="#95959F"/>
<path d="M189.403 146.187H100.933V147.187H189.403V146.187ZM199.017 155.802C199.017 150.492 194.713 146.187 189.403 146.187V147.187C194.16 147.187 198.017 151.044 198.017 155.802H199.017ZM189.403 165.416C194.713 165.416 199.017 161.112 199.017 155.802H198.017C198.017 160.56 194.16 164.416 189.403 164.416V165.416ZM100.933 165.416H189.403V164.416H100.933V165.416ZM91.3182 155.802C91.3182 161.112 95.6229 165.416 100.933 165.416V164.416C96.1752 164.416 92.3182 160.56 92.3182 155.802H91.3182ZM100.933 146.187C95.6229 146.187 91.3182 150.492 91.3182 155.802H92.3182C92.3182 151.044 96.1752 147.187 100.933 147.187V146.187ZM189.773 149.586H100.557V150.586H189.773V149.586ZM195.989 155.802C195.989 152.369 193.206 149.586 189.773 149.586V150.586C192.654 150.586 194.989 152.921 194.989 155.802H195.989ZM189.773 162.017C193.206 162.017 195.989 159.234 195.989 155.802H194.989C194.989 158.682 192.654 161.017 189.773 161.017V162.017ZM100.557 162.017H189.773V161.017H100.557V162.017ZM94.3418 155.802C94.3418 159.234 97.1245 162.017 100.557 162.017V161.017C97.6768 161.017 95.3418 158.682 95.3418 155.802H94.3418ZM100.557 149.586C97.1245 149.586 94.3418 152.369 94.3418 155.802H95.3418C95.3418 152.921 97.6768 150.586 100.557 150.586V149.586Z" fill="#263238"/>
<path d="M153.284 121.026L198.286 113.759V137.906H154.523L153.284 121.026Z" fill="#F4F7F9" stroke="#1E62A1" stroke-miterlimit="10"/>
<path d="M175.403 126.933H197.188V133.516H175.403C173.494 133.516 171.943 132.04 171.943 130.223C171.943 128.406 173.494 126.93 175.403 126.93V126.933Z" fill="#83ABDE"/>
<path d="M26.111 150.145L31.7038 71.8781L39.5611 61.3743L50.6977 78.2476L33.6431 151.221L26.111 150.145Z" fill="#E5D050" stroke="#1E62A1" stroke-miterlimit="10" stroke-linejoin="round"/>
<path d="M112.09 49L146.322 97.3507H133.113L98.2446 69.6565L50.6974 78.2474L39.5609 61.3742L112.09 49Z" fill="#E5D050" stroke="#1E62A1" stroke-miterlimit="10" stroke-linejoin="round"/>
<path d="M46.4446 77.83C50.8402 77.83 54.4036 74.2667 54.4036 69.8711C54.4036 65.4755 50.8402 61.9121 46.4446 61.9121C42.0491 61.9121 38.4857 65.4755 38.4857 69.8711C38.4857 74.2667 42.0491 77.83 46.4446 77.83Z" fill="white" stroke="#04447F" stroke-miterlimit="10"/>
<path d="M105.117 67.9244C108.707 67.9244 111.618 65.0142 111.618 61.4242C111.618 57.8343 108.707 54.924 105.117 54.924C101.527 54.924 98.6172 57.8343 98.6172 61.4242C98.6172 65.0142 101.527 67.9244 105.117 67.9244Z" fill="white" stroke="#04447F" stroke-miterlimit="10"/>
<path d="M114.868 137.926H160.766L158.254 99.1932C158.186 98.1568 157.328 97.3506 156.288 97.3506H133.341C128.803 97.3506 124.704 100.068 122.938 104.248L115.742 121.279C115.162 122.648 114.868 124.119 114.868 125.604V137.922V137.926Z" fill="#F4F7F9" stroke="#1E62A1" stroke-miterlimit="10"/>
<path d="M153.107 122.196L152.003 101.701H135.97C132.024 101.701 128.463 104.064 126.927 107.698L120.675 122.503C120.171 123.693 119.911 124.973 119.911 126.265V133.576H142.325C142.325 127.489 147.098 122.516 153.107 122.196Z" fill="#DFEBFB" stroke="#1E62A1" stroke-miterlimit="10"/>
<path d="M64.9399 171.231L61.4092 162.667C61.3808 162.598 61.3615 162.526 61.349 162.443L60.7943 158.405C60.7748 158.252 60.7244 158.125 60.6495 158.033L57.7654 154.398C57.7453 154.371 57.7244 154.349 57.7025 154.331L53.2437 150.659C53.0176 150.472 52.7453 150.424 52.4616 150.513L47.5995 152.107C47.5127 152.134 47.4318 152.194 47.3538 152.281L43.8911 156.122C43.7518 156.277 43.5845 156.341 43.4397 156.297L40.6977 155.482C40.6413 155.465 40.5812 155.466 40.5184 155.48L35.866 156.665C35.8165 156.677 35.7692 156.698 35.7242 156.729L30.7563 160.058C30.6764 160.114 30.6001 160.192 30.5367 160.291L28.2946 163.776C27.9596 164.295 28.0516 165.082 28.4573 165.167L64.2918 172.654C64.7712 172.754 65.1934 171.818 64.9358 171.23L64.9399 171.231Z" fill="#D9C979"/>
<path d="M25.8999 150.457L17.2203 163.102C15.2882 165.918 15.0597 169.578 16.6257 172.604L21.1793 181.383C22.7969 184.501 26.045 186.416 29.5451 186.309L35.0248 186.143C43.3706 185.89 51.4256 182.968 58.0305 177.81L64.9853 172.379C65.2077 172.203 65.1342 171.847 64.8574 171.779L56.05 169.665C48.9243 167.953 37.2476 165.676 36.3443 163.699C35.0053 160.773 33.8599 155.889 33.1993 152.736L25.8957 150.456L25.8999 150.457Z" fill="#BEC7CD" stroke="#04447F" stroke-miterlimit="10" stroke-linejoin="round"/>
<path d="M28.8398 154.257C30.8472 154.82 32.9305 153.648 33.4929 151.641C34.0553 149.634 32.8839 147.55 30.8765 146.988C28.869 146.425 26.7858 147.597 26.2234 149.604C25.6609 151.612 26.8324 153.695 28.8398 154.257Z" fill="white" stroke="#04447F" stroke-miterlimit="10"/>
<path d="M198.286 137.906H114.868V142.296H198.286V137.906Z" fill="#04447F" stroke="#1E62A1" stroke-miterlimit="10"/>
</svg>
