<svg width="208" height="187" viewBox="0 0 208 187" fill="none" xmlns="http://www.w3.org/2000/svg">
<ellipse cx="103.533" cy="183.458" rx="61.5334" ry="3.45772" fill="#ECEFF1"/>
<path d="M71.6923 37.0033V0H8V149H16.3077V10.3955L46.3151 7.40066L46.448 7.52894L46.5865 7.37599L61.496 5.89586L61.6622 6.05867L61.8394 5.86132L70.0308 5.02752V37.0033H61.1692V40.9503H80V37.0033H71.6923ZM28.8025 2.58037L33.7871 7.15891L23.5077 8.18513L28.8025 2.58037ZM22.0788 7.40066L17.2271 1.48013H27.6726L22.0788 7.40066ZM29.9157 1.48013H40.1231L35.2049 6.3103L29.9157 1.48013ZM70.0308 2.10179V3.53752L68.7348 3.66579L70.0308 2.10179ZM67.2948 2.91586L65.8049 1.48013H68.48L67.2948 2.91586ZM63.6172 1.48013L61.5735 3.76447L59.2308 1.48013H63.6172ZM57.0431 1.48013L54.5785 4.23811L51.8757 1.48013H57.0431ZM49.7102 1.48013L46.3428 5.25941L42.3717 1.48013H49.7102ZM16.3077 2.86652L20.8991 8.44662L16.3077 8.90547V2.86652ZM36.8886 6.84808L41.2308 2.5705L44.8862 6.04881L36.8886 6.84808ZM50.8012 2.63463L53.3268 5.20513L48.0431 5.73305L50.8012 2.63463ZM56.0849 4.93377L58.1508 2.62477L60.1114 4.53414L56.0849 4.93377ZM64.7249 2.61983L66.0874 3.94702L63.3182 4.22331L64.7249 2.61983Z" fill="#ECEFF1"/>
<path d="M53.2805 64.3482H43.0115V59.4281H41.5445V64.3482H31.7646V55H29.8086V157.831H55.2365V57.9521H53.2805V64.3482ZM41.5445 72.2204H31.7646V66.8083H41.5445V72.2204ZM53.2805 72.2204H43.0115V66.8083H53.2805V72.2204Z" fill="#ECEFF1"/>
<path d="M204 162V137.945H201.863V126.482H198.733V86.6293H194.21V81.4855L184.562 77.1551V71.9737H183.222V86.6293H181.35V126.482H179.482V105.526H174.401V94.7259H172.983V126.482H169.125V114.398H166.582V111.309H160.699V100.768H157.477V93.3107H153.516V82.4494H152.103V93.3107H148.142V100.768H144.919V111.309H139.037V114.398H136.499V126.482H133.487V111.309H127.604V78.6597H125.731V75.0581H113.164V78.6597H110.489V102.315H99.7897V104.628H95.78V106.429V112.829V115.682H88.5623V84.8285H86.1516V78.2695H80.9389V55H79.467V78.2695H75.7262V84.8285H53.7751V82.6704H52.4401V97.3261H50.5672V97.5847H49.4425V112.24H47.5697V116.223H43.6137V105.427H42.1956V131.137H40.621V120.337H39.2029V137.179H38.3374V125.095H35.7995V122.011H29.9169V111.469H26.6944V104.012H22.7335V93.1461H21.3203V104.012H17.3594V111.469H14.1369V122.011H8.25428V125.095H5.71638V136.925H5.25672V137.179H4V162H204Z" fill="#ECEFF1"/>
<path d="M1 162H75" stroke="#E0E3E6" stroke-width="0.5" stroke-linecap="round"/>
<path d="M95 162H207" stroke="#E0E3E6" stroke-width="0.5" stroke-linecap="round"/>
<path d="M80 162H89" stroke="#E0E3E6" stroke-width="0.5" stroke-linecap="round"/>
<path d="M80.8993 100.622H126.307C126.785 100.622 127.172 100.235 127.172 99.7569V83.0885C127.172 82.6108 126.785 82.2235 126.307 82.2235H80.8993C80.4216 82.2235 80.0343 82.6108 80.0343 83.0885V99.7569C80.0343 100.235 80.4216 100.622 80.8993 100.622Z" fill="#EEE4B0" stroke="#1E62A1" stroke-width="0.7" stroke-miterlimit="10"/>
<path d="M104.465 119.861H149.872C150.35 119.861 150.737 119.474 150.737 118.996V102.328C150.737 101.85 150.35 101.463 149.872 101.463H104.465C103.987 101.463 103.6 101.85 103.6 102.328V118.996C103.6 119.474 103.987 119.861 104.465 119.861Z" fill="#EEE4B0" stroke="#1E62A1" stroke-width="0.7" stroke-miterlimit="10"/>
<path d="M56.4296 119.861H101.837C102.315 119.861 102.702 119.474 102.702 118.996V102.328C102.702 101.85 102.315 101.463 101.837 101.463H56.4296C55.9518 101.463 55.5645 101.85 55.5645 102.328V118.996C55.5645 119.474 55.9518 119.861 56.4296 119.861Z" fill="#E5D050" stroke="#1E62A1" stroke-width="0.7" stroke-miterlimit="10"/>
<path d="M128.927 139.085H174.334C174.812 139.085 175.199 138.698 175.199 138.22V121.552C175.199 121.074 174.812 120.686 174.334 120.686H128.927C128.449 120.686 128.062 121.074 128.062 121.552V138.22C128.062 138.698 128.449 139.085 128.927 139.085Z" fill="#EEE4B0" stroke="#1E62A1" stroke-width="0.7" stroke-miterlimit="10"/>
<path d="M80.8993 139.085H126.307C126.785 139.085 127.172 138.698 127.172 138.22V121.552C127.172 121.074 126.785 120.686 126.307 120.686H80.8993C80.4216 120.686 80.0343 121.074 80.0343 121.552V138.22C80.0343 138.698 80.4216 139.085 80.8993 139.085Z" fill="#E5D050" stroke="#1E62A1" stroke-width="0.7" stroke-miterlimit="10"/>
<path d="M152.491 119.861H174.334C174.812 119.861 175.199 119.474 175.199 118.996V102.328C175.199 101.85 174.812 101.463 174.334 101.463H152.491C152.014 101.463 151.626 101.85 151.626 102.328V118.996C151.626 119.474 152.014 119.861 152.491 119.861Z" fill="#E5D050" stroke="#1E62A1" stroke-width="0.7" stroke-miterlimit="10"/>
<path d="M104.465 158.308H149.872C150.35 158.308 150.737 157.921 150.737 157.443V140.775C150.737 140.297 150.35 139.91 149.872 139.91H104.465C103.987 139.91 103.6 140.297 103.6 140.775V157.443C103.6 157.921 103.987 158.308 104.465 158.308Z" fill="#E5D050" stroke="#1E62A1" stroke-width="0.7" stroke-miterlimit="10"/>
<path d="M56.4296 158.308H101.837C102.315 158.308 102.702 157.921 102.702 157.443V140.775C102.702 140.297 102.315 139.91 101.837 139.91H56.4296C55.9518 139.91 55.5645 140.297 55.5645 140.775V157.443C55.5645 157.921 55.9518 158.308 56.4296 158.308Z" fill="#EEE4B0" stroke="#1E62A1" stroke-width="0.7" stroke-miterlimit="10"/>
<path d="M80.8993 177.54H126.307C126.785 177.54 127.172 177.153 127.172 176.675V160.007C127.172 159.529 126.785 159.142 126.307 159.142H80.8993C80.4216 159.142 80.0343 159.529 80.0343 160.007V176.675C80.0343 177.153 80.4216 177.54 80.8993 177.54Z" fill="#EEE4B0" fill-opacity="0.9" stroke="#1E62A1" stroke-width="0.7" stroke-miterlimit="10"/>
<path d="M32.8651 177.54H78.2726C78.7504 177.54 79.1377 177.153 79.1377 176.675V160.007C79.1377 159.529 78.7504 159.142 78.2726 159.142H32.8651C32.3874 159.142 32.0001 159.529 32.0001 160.007V176.675C32.0001 177.153 32.3874 177.54 32.8651 177.54Z" fill="#E5D050" stroke="#1E62A1" stroke-width="0.7" stroke-miterlimit="10"/>
<path d="M128.927 177.54H174.334C174.812 177.54 175.199 177.153 175.199 176.675V160.007C175.199 159.529 174.812 159.142 174.334 159.142H128.927C128.449 159.142 128.062 159.529 128.062 160.007V176.675C128.062 177.153 128.449 177.54 128.927 177.54Z" fill="#E5D050" stroke="#1E62A1" stroke-width="0.7" stroke-miterlimit="10"/>
<path d="M81.9102 94.7096C83.9717 94.2536 86.1784 94.6105 88.429 96.136C90.246 97.3703 91.96 98.9043 94.2072 99.276C98.3233 99.9669 102.122 96.5967 106.319 95.9789C111.432 95.2207 116.169 98.9216 117.677 103.371C119.184 107.82 118.157 112.748 116.614 117.307C114.623 123.178 111.234 128.94 113.589 134.894C116.247 141.616 121.571 147.174 123.495 154.223C126.041 163.544 117.726 169.113 108.215 170.471C99.8139 171.675 91.0732 169.659 84.5276 165.012C76.9575 159.627 71.2828 150.202 74.403 141.171C75.3526 138.433 77.2018 135.764 77.514 132.885C77.8635 129.653 76.347 126.462 74.8518 123.703C72.872 120.038 70.3467 116.093 70.2716 111.824C70.1675 106.089 75.2478 96.1725 81.91 94.7016L81.9102 94.7096Z" fill="#F4F7F9" fill-opacity="0.95" stroke="#1E62A1" stroke-miterlimit="10"/>
<path d="M75.2321 106.342C75.0803 104.792 75.8281 103.311 76.5323 101.975C78.4199 98.2065 82.794 96.5976 86.5895 98.5885C87.2735 98.9442 87.9533 99.4201 88.3032 100.115C87.8046 99.5369 87.1363 99.1728 86.4404 98.9537C82.7599 97.5763 79.0918 98.9472 77.0711 102.295C76.2926 103.561 75.4015 104.814 75.2321 106.342Z" fill="#1E62A1"/>
<path d="M107.622 99.2885C109.907 99.042 112.064 100.394 113.447 102.131C116.275 105.738 116.381 111 114.567 115.094C112.84 119.146 109.523 122.534 109.067 127.003C108.132 134.893 110.8 139.058 115.715 144.869C110.379 139.432 107.44 134.826 108.344 126.929C108.723 122.31 112.101 118.816 113.901 114.802C116.61 109.326 114.941 99.6245 107.622 99.2805L107.622 99.2885Z" fill="#1E62A1"/>
<path d="M78.2541 144.963C81.7929 146.946 87.0386 146.841 88.9314 142.719C88.0034 147.724 81.3735 148.161 78.2541 144.963Z" fill="#1E62A1"/>
<path d="M68.1487 134.089L62.7433 138.149L63.3879 139.007L68.7933 134.947L68.1487 134.089Z" fill="#04447F" stroke="#04447F" stroke-miterlimit="10"/>
<path d="M66.7487 130.925L64.2545 121.835C63.4189 118.775 65.1204 115.59 68.1376 114.601L101.564 103.581C106.178 101.647 110.341 107.119 107.558 111.419C107.837 111.461 92.6246 132.61 86.3821 141.266C84.9055 143.321 82.0963 143.877 79.9397 142.557L71.6745 137.483C69.2591 136.001 67.5002 133.654 66.7487 130.925Z" fill="#95959F" stroke="#1E62A1" stroke-miterlimit="10"/>
<path d="M67.8543 132.713L78.6519 124.653C79.4923 124.018 80.6961 124.198 81.3062 125.061C81.9015 125.892 81.7159 127.04 80.9004 127.652L70.0093 135.635L69.0691 134.592C68.8456 134.343 68.6392 134.063 68.4735 133.769L67.8546 132.705L67.8543 132.713Z" fill="white" fill-opacity="0.45"/>
<path d="M65.2075 141.466L60.8802 135.652L42.5206 149.61C40.9302 150.819 40.6552 153.118 41.9221 154.662C43.1195 156.132 45.2661 156.394 46.7899 155.254L65.2078 141.458L65.2075 141.466Z" fill="#04447F"/>
<path d="M70.4204 115.517C79.3136 112.27 89.1865 108.97 98.246 106.226C89.3528 109.473 79.4798 112.773 70.4204 115.517Z" fill="#1E62A1"/>
</svg>
