<svg width="208" height="187" viewBox="0 0 208 187" fill="none" xmlns="http://www.w3.org/2000/svg">
<path d="M71.6923 37.0033V0H8V149H16.3077V10.3955L46.3151 7.40066L46.448 7.52894L46.5865 7.37599L61.496 5.89586L61.6622 6.05867L61.8394 5.86132L70.0308 5.02752V37.0033H61.1692V40.9503H80V37.0033H71.6923ZM28.8025 2.58037L33.7871 7.15891L23.5077 8.18513L28.8025 2.58037ZM22.0788 7.40066L17.2271 1.48013H27.6726L22.0788 7.40066ZM29.9157 1.48013H40.1231L35.2049 6.3103L29.9157 1.48013ZM70.0308 2.10179V3.53752L68.7348 3.66579L70.0308 2.10179ZM67.2948 2.91586L65.8049 1.48013H68.48L67.2948 2.91586ZM63.6172 1.48013L61.5735 3.76447L59.2308 1.48013H63.6172ZM57.0431 1.48013L54.5785 4.23811L51.8757 1.48013H57.0431ZM49.7102 1.48013L46.3428 5.25941L42.3717 1.48013H49.7102ZM16.3077 2.86652L20.8991 8.44662L16.3077 8.90546V2.86652ZM36.8886 6.84808L41.2308 2.5705L44.8862 6.04881L36.8886 6.84808ZM50.8012 2.63463L53.3268 5.20513L48.0431 5.73305L50.8012 2.63463ZM56.0849 4.93377L58.1508 2.62477L60.1114 4.53414L56.0849 4.93377ZM64.7249 2.61983L66.0874 3.94702L63.3182 4.22331L64.7249 2.61983Z" fill="#ECEFF1"/>
<path d="M53.2805 64.3482H43.0115V59.4281H41.5445V64.3482H31.7646V55H29.8086V157.831H55.2365V57.9521H53.2805V64.3482ZM41.5445 72.2204H31.7646V66.8083H41.5445V72.2204ZM53.2805 72.2204H43.0115V66.8083H53.2805V72.2204Z" fill="#ECEFF1"/>
<path d="M204 162V137.945H201.863V126.482H198.733V86.6293H194.21V81.4855L184.562 77.1551V71.9737H183.222V86.6293H181.35V126.482H179.482V105.526H174.401V94.7259H172.983V126.482H169.125V114.398H166.582V111.309H160.699V100.768H157.477V93.3107H153.516V82.4494H152.103V93.3107H148.142V100.768H144.919V111.309H139.037V114.398H136.499V126.482H133.487V111.309H127.604V78.6597H125.731V75.0581H113.164V78.6597H110.489V102.315H99.7897V104.628H95.78V106.429V112.829V115.682H88.5623V84.8285H86.1516V78.2695H80.9389V55H79.467V78.2695H75.7262V84.8285H53.7751V82.6704H52.4401V97.3261H50.5672V97.5847H49.4425V112.24H47.5697V116.223H43.6137V105.427H42.1956V131.137H40.621V120.337H39.2029V137.179H38.3374V125.095H35.7995V122.011H29.9169V111.469H26.6944V104.012H22.7335V93.1461H21.3203V104.012H17.3594V111.469H14.1369V122.011H8.25428V125.095H5.71638V136.925H5.25672V137.179H4V162H204Z" fill="#ECEFF1"/>
<path d="M1 162H75" stroke="#E0E3E6" stroke-width="0.5" stroke-linecap="round"/>
<path d="M95 162H207" stroke="#E0E3E6" stroke-width="0.5" stroke-linecap="round"/>
<path d="M80 162H89" stroke="#E0E3E6" stroke-width="0.5" stroke-linecap="round"/>
<ellipse cx="103.685" cy="166.565" rx="91.6854" ry="19.9551" fill="#F7F2DD" fill-opacity="0.88"/>
<ellipse cx="103.788" cy="166.994" rx="57.2783" ry="9.01007" fill="#64676A"/>
<path fill-rule="evenodd" clip-rule="evenodd" d="M155.889 170.743C159.213 169.601 161.066 168.332 161.066 166.994C161.066 162.018 135.422 157.984 103.788 157.984C72.1539 157.984 46.5095 162.018 46.5095 166.994C46.5095 168.716 49.5791 170.325 54.9043 171.693C63.9465 168.588 83.8749 166.431 107.006 166.431C127.695 166.431 145.822 168.156 155.889 170.743Z" fill="#B0B2B5"/>
<path d="M33.3275 139.738L39.8635 162.47H22.9483L29.4844 139.738C29.6289 139.347 29.8889 139.01 30.23 138.771C30.5746 138.53 30.9851 138.4 31.4059 138.4C31.8267 138.4 32.2373 138.53 32.5819 138.771C32.9229 139.01 33.1829 139.347 33.3275 139.738Z" fill="#E5D050" stroke="#1E62A1" stroke-width="0.8"/>
<path d="M34.1832 142.704L35.3612 146.807H27.4513L28.6293 142.704H34.1832Z" fill="#F4F7F9" stroke="#1E62A1" stroke-width="0.8"/>
<path d="M36.5164 150.837L37.6987 154.945H25.1127L26.2909 150.837H36.5164Z" fill="#F4F7F9" stroke="#1E62A1" stroke-width="0.8"/>
<path d="M19.4 162.89H43.409V163.638H19.4V162.89Z" fill="#04447F" stroke="#04447F" stroke-width="0.8"/>
<path d="M80.0647 110.561L79.8147 110.559L79.8128 110.809L79.2626 181.234L79.2606 181.484L79.5106 181.486L83.3831 181.516L83.6331 181.518L83.6351 181.268L84.1852 110.843L84.1872 110.593L83.9372 110.591L80.0647 110.561Z" fill="#1E62A1" stroke="#1E62A1" stroke-width="0.5"/>
<mask id="mask0_13846_488" style="mask-type:luminance" maskUnits="userSpaceOnUse" x="67" y="115" width="61" height="51">
<path d="M106.573 153.883L100.052 165.742L67.2256 165.201L67.4486 115.802L127.442 115.918L106.573 153.883Z" fill="white"/>
</mask>
<g mask="url(#mask0_13846_488)">
<path d="M115.674 136.5L107.575 136.492L117.435 118.767L117.445 118.767L125.325 118.772L115.674 136.5Z" fill="white" stroke="#1E62A1"/>
<path d="M117.436 118.767L107.575 136.492L107.565 136.491L94.4869 136.468L104.347 118.752L104.357 118.753L117.436 118.767Z" fill="#E5D050" stroke="#1E62A1"/>
<path d="M104.347 118.752L94.4869 136.468L81.3988 136.444L91.2591 118.738L104.347 118.752Z" fill="white" stroke="#1E62A1"/>
<path d="M91.2591 118.738L81.3988 136.444L68.7399 136.427L68.7529 135.64L78.1708 118.724L91.2591 118.738Z" fill="#E5D050" stroke="#1E62A1"/>
<path d="M78.1709 118.724L68.7529 135.64L69.0319 118.717L78.1709 118.724Z" fill="white" stroke="#1E62A1"/>
<path d="M89.8762 144.75L80.0157 162.465L68.3109 162.445L68.3531 159.884L76.7879 144.736L89.8762 144.75Z" fill="#E5D050" stroke="#1E62A1"/>
<path d="M102.964 144.764L93.0942 162.489L80.0157 162.465L89.8761 144.75L102.964 144.764Z" fill="white" stroke="#1E62A1"/>
<path d="M101.184 162.498L93.0943 162.489L102.964 144.764L110.882 144.77L101.184 162.498Z" fill="#E5D050" stroke="#1E62A1"/>
<path d="M76.7879 144.736L68.3531 159.884L68.603 144.726L76.7879 144.736Z" fill="white" stroke="#1E62A1"/>
</g>
<path d="M81.9712 111.56C83.8411 111.591 85.3821 110.091 85.4131 108.211C85.4441 106.33 83.9534 104.78 82.0836 104.749C80.2137 104.718 78.6727 106.218 78.6417 108.099C78.6107 109.98 80.1014 111.53 81.9712 111.56Z" fill="#E5D050" stroke="#1E62A1"/>
<path d="M165.492 100.807L161.62 100.891L163.137 171.302L167.009 171.218L165.492 100.807Z" fill="#1E62A1" stroke="#1E62A1" stroke-width="0.5"/>
<path d="M163.551 101.589C165.421 101.565 166.917 100.021 166.893 98.1399C166.868 96.2588 165.333 94.7534 163.463 94.7775C161.593 94.8015 160.097 96.3459 160.121 98.227C160.145 100.108 161.681 101.613 163.551 101.589Z" fill="#E5D050" stroke="#1E62A1"/>
<mask id="mask1_13846_488" style="mask-type:luminance" maskUnits="userSpaceOnUse" x="113" y="104" width="68" height="53">
<path d="M180.284 155.139L179.639 104.971L139.046 106.165L113.13 156.771L180.284 155.139Z" fill="white"/>
</mask>
<g mask="url(#mask1_13846_488)">
<path d="M168.386 108.196L159.031 126.222L145.948 126.583L155.294 108.566L168.386 108.196Z" fill="white" stroke="#1E62A1"/>
<path d="M155.294 108.566L145.948 126.583L132.865 126.943L142.211 108.936L155.294 108.566Z" fill="#E5D050" stroke="#1E62A1"/>
<path d="M137.567 109.063L142.21 108.936L132.865 126.943L128.345 127.068L137.567 109.063Z" fill="white" stroke="#1E62A1"/>
<path d="M132.865 126.943L128.631 127.074L137.853 109.069L142.21 108.936L132.865 126.943Z" fill="white" stroke="#1E62A1"/>
<path d="M124.58 135.455L128.508 135.347L119.163 153.354L115.224 153.462L124.58 135.455Z" fill="#E5D050" stroke="#1E62A1"/>
<path d="M141.592 134.987L132.246 152.994L119.163 153.354L128.509 135.347L141.592 134.987Z" fill="white" stroke="#1E62A1"/>
<path d="M154.675 134.617L145.329 152.634L132.246 152.994L141.592 134.987L141.601 134.977L154.675 134.617Z" fill="#E5D050" stroke="#1E62A1"/>
<path d="M167.758 134.247L158.412 152.264L145.329 152.633L154.675 134.617L167.758 134.247Z" fill="white" stroke="#1E62A1"/>
<path d="M177.737 139.531L177.737 139.541L171.324 151.906L171.314 151.906L158.412 152.264L167.758 134.247L177.646 133.967L177.737 139.531Z" fill="#E5D050" stroke="#1E62A1"/>
<path d="M177.941 151.725L171.323 151.906L177.737 139.541L177.941 151.725Z" fill="white" stroke="#1E62A1"/>
<path d="M177.439 115.593L172.114 125.862L159.031 126.222L168.386 108.196L177.312 107.947L177.439 115.593Z" fill="#E5D050" stroke="#1E62A1"/>
<path d="M177.607 125.705L172.114 125.862L177.439 115.593L177.607 125.705Z" fill="white" stroke="#1E62A1"/>
</g>
</svg>
