<svg width="208" height="187" viewBox="0 0 208 187" fill="none" xmlns="http://www.w3.org/2000/svg">
<ellipse cx="103.533" cy="183.458" rx="61.5334" ry="3.45772" fill="#ECEFF1"/>
<path d="M71.6923 37.0033V0H8V149H16.3077V10.3955L46.3151 7.40066L46.448 7.52894L46.5865 7.37599L61.496 5.89586L61.6622 6.05867L61.8394 5.86132L70.0308 5.02752V37.0033H61.1692V40.9503H80V37.0033H71.6923ZM28.8025 2.58037L33.7871 7.15891L23.5077 8.18513L28.8025 2.58037ZM22.0788 7.40066L17.2271 1.48013H27.6726L22.0788 7.40066ZM29.9157 1.48013H40.1231L35.2049 6.3103L29.9157 1.48013ZM70.0308 2.10179V3.53752L68.7348 3.66579L70.0308 2.10179ZM67.2948 2.91586L65.8049 1.48013H68.48L67.2948 2.91586ZM63.6172 1.48013L61.5735 3.76447L59.2308 1.48013H63.6172ZM57.0431 1.48013L54.5785 4.23811L51.8757 1.48013H57.0431ZM49.7102 1.48013L46.3428 5.25941L42.3717 1.48013H49.7102ZM16.3077 2.86652L20.8991 8.44662L16.3077 8.90547V2.86652ZM36.8886 6.84808L41.2308 2.5705L44.8862 6.04881L36.8886 6.84808ZM50.8012 2.63463L53.3268 5.20513L48.0431 5.73305L50.8012 2.63463ZM56.0849 4.93377L58.1508 2.62477L60.1114 4.53414L56.0849 4.93377ZM64.7249 2.61983L66.0874 3.94702L63.3182 4.22331L64.7249 2.61983Z" fill="#ECEFF1"/>
<path d="M53.2805 64.3482H43.0115V59.4281H41.5445V64.3482H31.7646V55H29.8086V157.831H55.2365V57.9521H53.2805V64.3482ZM41.5445 72.2204H31.7646V66.8083H41.5445V72.2204ZM53.2805 72.2204H43.0115V66.8083H53.2805V72.2204Z" fill="#ECEFF1"/>
<path d="M204 162V137.945H201.863V126.482H198.733V86.6293H194.21V81.4855L184.562 77.1551V71.9737H183.222V86.6293H181.35V126.482H179.482V105.526H174.401V94.7259H172.983V126.482H169.125V114.398H166.582V111.309H160.699V100.768H157.477V93.3107H153.516V82.4494H152.103V93.3107H148.142V100.768H144.919V111.309H139.037V114.398H136.499V126.482H133.487V111.309H127.604V78.6597H125.731V75.0581H113.164V78.6597H110.489V102.315H99.7897V104.628H95.78V106.429V112.829V115.682H88.5623V84.8285H86.1516V78.2695H80.9389V55H79.467V78.2695H75.7262V84.8285H53.7751V82.6704H52.4401V97.3261H50.5672V97.5847H49.4425V112.24H47.5697V116.223H43.6137V105.427H42.1956V131.137H40.621V120.337H39.2029V137.179H38.3374V125.095H35.7995V122.011H29.9169V111.469H26.6944V104.012H22.7335V93.1461H21.3203V104.012H17.3594V111.469H14.1369V122.011H8.25428V125.095H5.71638V136.925H5.25672V137.179H4V162H204Z" fill="#ECEFF1"/>
<path d="M1 162H75" stroke="#E0E3E6" stroke-width="0.5" stroke-linecap="round"/>
<path d="M95 162H207" stroke="#E0E3E6" stroke-width="0.5" stroke-linecap="round"/>
<path d="M80 162H89" stroke="#E0E3E6" stroke-width="0.5" stroke-linecap="round"/>
<path d="M111.051 151.884L131.834 178.147C132.913 179.511 135.091 178.965 135.404 177.252L141.462 143.805" stroke="#455A64" stroke-width="3" stroke-miterlimit="10"/>
<path d="M51.5779 109.002H157L140.363 142.002H70.9327L50.3481 111.51C49.5227 110.497 50.2582 109.002 51.5779 109.002Z" fill="#83ABDE" stroke="#04447F" stroke-miterlimit="10"/>
<path d="M60.5 160.167C60.5 148.753 69.7512 139.502 81.1644 139.502C92.5777 139.502 101.829 148.753 101.829 160.167C101.829 171.58 92.5777 180.831 81.1644 180.831C69.7512 180.831 60.5 171.58 60.5 160.167ZM71.3017 160.167C71.3017 165.614 75.7175 170.029 81.1644 170.029C86.6114 170.029 91.0272 165.614 91.0272 160.167C91.0272 154.72 86.6114 150.304 81.1644 150.304C75.7175 150.304 71.3017 154.72 71.3017 160.167Z" fill="#455A64" stroke="#263238" stroke-miterlimit="10"/>
<path d="M82.2108 163.688L82.3783 163.641L144.616 146.301L169.744 98.2155L169.884 97.9471H170.187H178.247C180.028 97.9471 181.469 96.5025 181.469 94.7244C181.469 92.943 180.025 91.5018 178.247 91.5018H165.712L140.624 139.511L140.524 139.703L140.315 139.761L80.3764 156.461C80.3763 156.461 80.3763 156.461 80.3762 156.461C78.4234 157.006 77.2636 159.008 77.7621 160.971L82.2108 163.688ZM82.2108 163.688C80.2481 164.14 78.2645 162.945 77.7622 160.971L82.2108 163.688Z" fill="#F4F7F9" stroke="#263238"/>
<path d="M26 183.144L33.2302 176.88L35.4503 173.386L40.5175 170.632L48.5844 168.002L55.6288 170.632L59.2357 174.417L63.7183 174.261L70.1131 176.275L75.6746 179.927L78.5669 183.868L26 183.144Z" fill="#EEE4B0"/>
<path d="M46.1618 174.674C46.0308 174.646 45.9023 174.607 45.7777 174.558C45.532 174.476 45.1817 174.352 44.7411 174.23C44.228 174.081 43.6965 174.005 43.1622 174.004C42.5116 174.003 41.876 174.2 41.3403 174.569C41.0778 174.783 40.8375 175.022 40.6229 175.284C40.5072 175.408 40.3728 175.514 40.2247 175.597C40.0776 175.674 39.9158 175.718 39.7501 175.727C39.4338 175.75 39.1457 175.699 38.883 175.704C38.638 175.711 38.3965 175.763 38.1712 175.86C37.8403 175.997 37.549 176.214 37.3238 176.493C37.1657 176.693 37.1064 176.823 37.0951 176.817C37.0838 176.812 37.0951 176.781 37.129 176.718C37.1714 176.628 37.2215 176.541 37.2787 176.459C37.494 176.156 37.7866 175.916 38.126 175.764C38.3617 175.656 38.6158 175.595 38.8745 175.583C39.157 175.583 39.4394 175.617 39.7219 175.583C39.8729 175.571 40.02 175.529 40.1544 175.459C40.2888 175.389 40.4078 175.293 40.5043 175.176C40.7212 174.906 40.9664 174.66 41.2358 174.442C41.7988 174.061 42.4657 173.864 43.1452 173.877C43.6911 173.883 44.2329 173.972 44.7524 174.14C45.1958 174.275 45.5433 174.422 45.7805 174.513C45.9125 174.554 46.0402 174.608 46.1618 174.674Z" fill="#1E62A1"/>
<path d="M66.0544 179.718C65.8911 179.66 65.7308 179.594 65.5743 179.52C65.1884 179.379 64.7787 179.315 64.3682 179.331C63.9573 179.348 63.5535 179.443 63.179 179.613C63.029 179.7 62.8743 179.778 62.7158 179.848C62.8279 179.709 62.9699 179.598 63.131 179.523C63.509 179.316 63.9298 179.199 64.3605 179.181C64.7912 179.164 65.2201 179.246 65.6138 179.421C65.7822 179.484 65.9332 179.585 66.0544 179.718Z" fill="#1E62A1"/>
<mask id="path-15-inside-1_1144_129382" fill="white">
<path d="M100.738 99.8354C101.631 100.403 103.05 101.43 103.794 101.975C103.176 101.537 102.031 100.726 100.738 99.8354Z"/>
</mask>
<path d="M100.738 99.8354C101.631 100.403 103.05 101.43 103.794 101.975C103.176 101.537 102.031 100.726 100.738 99.8354Z" fill="#FFFBC7"/>
<path d="M100.738 99.8354L101.275 98.9917L100.171 100.659L100.738 99.8354ZM103.794 101.975L103.216 102.791L104.385 101.168L103.794 101.975ZM100.201 100.679C101.062 101.227 102.455 102.233 103.203 102.782L104.385 101.168C103.645 100.626 102.2 99.5803 101.275 98.9917L100.201 100.679ZM104.372 101.159C103.754 100.721 102.604 99.9065 101.306 99.0118L100.171 100.659C101.458 101.545 102.598 102.353 103.216 102.791L104.372 101.159Z" fill="#1E62A1" mask="url(#path-15-inside-1_1144_129382)"/>
<path d="M146.805 109.48L146.813 109.48L146.805 109.48ZM146.805 109.48L146.817 109.98M146.805 109.48L146.817 109.98M146.817 109.98C146.805 109.48 146.805 109.48 146.804 109.48L146.804 109.48L146.801 109.48L146.792 109.481L146.753 109.482L146.602 109.486C146.469 109.489 146.272 109.495 146.016 109.503C145.504 109.518 144.755 109.542 143.811 109.577C141.921 109.645 139.244 109.755 136.095 109.919C129.797 110.247 121.604 110.792 114.034 111.661C106.519 112.524 99.4772 112.375 94.3123 112.009C91.7307 111.826 89.62 111.59 88.1561 111.399C87.4242 111.304 86.8541 111.22 86.4678 111.16C86.2746 111.13 86.1274 111.106 86.0289 111.09C86.0054 111.086 85.9848 111.082 85.9669 111.079C85.9472 111.076 85.9309 111.073 85.918 111.071L85.8906 111.066L85.884 111.065L85.8825 111.065L85.8823 111.065L85.3689 110.974M146.817 109.98L85.3689 110.974M85.3689 110.974L85.3002 111.485M85.3689 110.974L85.3002 111.485M55.4109 99.9256C55.9033 100.013 55.9032 100.013 55.9032 100.013L55.9033 100.013L55.4109 99.9256ZM55.4109 99.9256L55.451 100.424L55.4512 100.424C55.4511 100.424 55.451 100.424 55.4109 99.9256ZM85.4193 86.7107C85.6678 87.1446 85.6675 87.1447 85.6673 87.1448L85.6678 87.1446L85.4193 86.7107ZM85.4193 86.7107L85.274 87.1892L85.2744 87.1893C85.2742 87.1892 85.274 87.1892 85.4193 86.7107ZM131.687 88.2917C133.891 89.2989 135.825 90.435 137.506 91.6363L137.507 91.6377C141.135 94.2059 143.628 97.0331 145.268 99.3535L145.268 99.3537C146.26 100.756 146.94 101.972 147.371 102.834C147.587 103.265 147.74 103.608 147.839 103.84C147.888 103.956 147.924 104.045 147.947 104.104C147.958 104.133 147.967 104.155 147.972 104.169L147.977 104.184L147.979 104.187L147.979 104.187L147.979 104.188L147.979 104.188L148.05 104.386L148.243 104.474L148.243 104.474L148.244 104.474L148.248 104.476L148.263 104.483L148.326 104.512C148.381 104.537 148.463 104.575 148.565 104.624C148.77 104.722 149.061 104.863 149.401 105.036C150.084 105.383 150.957 105.855 151.738 106.361C152.539 106.881 153.17 107.391 153.441 107.8C153.575 108.002 153.56 108.088 153.557 108.1C153.556 108.103 153.53 108.204 153.239 108.33C151.884 108.916 150.286 109.207 149.006 109.349C148.371 109.419 147.822 109.452 147.432 109.467C147.238 109.475 147.084 109.478 146.979 109.479C146.927 109.48 146.887 109.48 146.86 109.48L146.831 109.48L146.824 109.48L146.822 109.48L146.822 109.48L131.687 88.2917ZM131.687 88.2917L131.895 87.8366L131.687 88.2914C131.687 88.2915 131.687 88.2916 131.687 88.2917ZM85.3002 111.485C85.3 111.486 85.2997 111.488 85.2993 111.49C85.2977 111.498 85.2943 111.514 85.2884 111.537C85.2764 111.583 85.2541 111.655 85.2155 111.743C85.1384 111.919 84.9964 112.161 84.738 112.398C84.2328 112.862 83.199 113.381 81.094 113.211C80.6284 113.173 79.9032 113.057 78.966 112.878C75.2638 112.154 68.5612 110.43 62.5791 108.536C59.588 107.589 56.7892 106.603 54.6413 105.683C53.5665 105.223 52.6663 104.784 51.9903 104.379C51.2909 103.961 50.9089 103.624 50.7737 103.393L50.7676 103.382M85.3002 111.485L50.7676 103.382M50.7676 103.382L50.761 103.372M50.7676 103.382L50.761 103.372M50.761 103.372C50.7453 103.348 50.7276 103.316 50.7152 103.291L50.7153 103.291M50.761 103.372L50.7153 103.291M50.7153 103.291L50.7102 103.281L50.7153 103.291ZM55.9028 100.015L55.8359 100.393L55.9028 100.015ZM55.9028 100.015C55.9028 100.015 55.9028 100.015 55.9029 100.015M55.9028 100.015L55.9029 100.015M55.9029 100.015C55.903 100.014 55.9031 100.014 55.9033 100.013M55.9029 100.015L55.9033 100.013M55.9033 100.013L55.9073 99.994M55.9033 100.013L55.9073 99.994M55.9073 99.994C55.9114 99.9751 55.9187 99.9437 55.9301 99.9007M55.9073 99.994L55.9301 99.9007M55.9301 99.9007C55.953 99.8146 55.9923 99.6817 56.0557 99.5077M55.9301 99.9007L56.0557 99.5077M56.0557 99.5077C56.1822 99.1605 56.405 98.6489 56.7856 98.0185L56.0557 99.5077ZM137.796 91.2296C141.477 93.8356 144.009 96.7059 145.676 99.065L137.796 91.2296ZM66.691 90.1171C66.6917 90.1168 66.6923 90.1165 66.6929 90.1162L66.4759 89.6658L66.6891 90.1181C66.6897 90.1178 66.6904 90.1175 66.691 90.1171ZM58.1184 96.219L57.7375 95.895L58.115 96.223C58.1155 96.2223 58.1161 96.2216 58.1167 96.221C58.1172 96.2203 58.1178 96.2197 58.1184 96.219ZM57.3664 97.1597C57.3669 97.1589 57.3674 97.1582 57.368 97.1574L56.9635 96.8635L57.3648 97.1617C57.3653 97.161 57.3658 97.1604 57.3664 97.1597Z" fill="#E5D050" stroke="#1E62A1"/>
<path d="M120.968 99.244C121.036 99.3139 121.103 99.3847 121.166 99.4555C121.404 99.7188 121.587 99.961 121.701 100.156C121.66 100.123 121.615 100.083 121.566 100.035C121.37 99.8403 121.165 99.5611 120.968 99.244Z" fill="#1E62A1" stroke="#1E62A1"/>
<mask id="path-19-inside-2_1144_129382" fill="white">
<path d="M120.699 96.3469C120.699 96.3469 123.018 99.9863 123.648 99.9927C124.278 99.9991 122.26 97.3039 120.699 96.3469Z"/>
</mask>
<path d="M120.699 96.3469C120.699 96.3469 123.018 99.9863 123.648 99.9927C124.278 99.9991 122.26 97.3039 120.699 96.3469Z" fill="#1E62A1"/>
<path d="M120.699 96.3469L121.222 95.4944L119.856 96.8843L120.699 96.3469ZM120.699 96.3469C119.856 96.8843 119.856 96.8844 119.856 96.8844C119.856 96.8845 119.856 96.8846 119.856 96.8847C119.856 96.8848 119.856 96.8851 119.857 96.8854C119.857 96.8859 119.857 96.8867 119.858 96.8878C119.859 96.8898 119.861 96.8927 119.864 96.8964C119.868 96.9039 119.875 96.9147 119.884 96.9286C119.902 96.9565 119.928 96.9969 119.961 97.048C120.028 97.1502 120.123 97.2956 120.239 97.4699C120.47 97.8175 120.788 98.2841 121.127 98.7533C121.463 99.2177 121.836 99.7061 122.176 100.087C122.344 100.275 122.527 100.463 122.711 100.611C122.803 100.686 122.917 100.768 123.047 100.837C123.166 100.899 123.375 100.99 123.638 100.993L123.658 98.9928C123.842 98.9946 123.959 99.0566 123.975 99.0648C124.002 99.079 124.001 99.0827 123.97 99.057C123.906 99.0056 123.805 98.9078 123.667 98.7537C123.396 98.4503 123.07 98.0278 122.748 97.5815C122.429 97.1401 122.127 96.6964 121.904 96.3614C121.793 96.1944 121.702 96.0555 121.639 95.9586C121.607 95.9102 121.583 95.8724 121.567 95.847C121.558 95.8343 121.552 95.8246 121.548 95.8183C121.546 95.8152 121.545 95.8128 121.544 95.8114C121.543 95.8106 121.543 95.8101 121.543 95.8098C121.543 95.8097 121.543 95.8096 121.543 95.8095C121.543 95.8095 121.543 95.8095 121.543 95.8095C121.543 95.8095 121.543 95.8095 120.699 96.3469ZM123.638 100.993C123.848 100.995 124.176 100.939 124.446 100.667C124.708 100.403 124.761 100.089 124.766 99.9045C124.775 99.5786 124.649 99.287 124.578 99.1361C124.406 98.7683 124.11 98.3328 123.782 97.9145C123.128 97.0786 122.147 96.0616 121.222 95.4944L120.177 97.1995C120.812 97.5892 121.621 98.3983 122.208 99.1477C122.501 99.522 122.689 99.8189 122.767 99.9846C122.821 100.1 122.762 100.026 122.766 99.8498C122.769 99.7403 122.803 99.4844 123.025 99.2596C123.256 99.0265 123.526 98.9914 123.658 98.9928L123.638 100.993Z" fill="#1E62A1" mask="url(#path-19-inside-2_1144_129382)"/>
<path d="M135.778 108.44C135.917 108.667 136.043 108.798 136.138 108.767L135.778 108.44Z" fill="#1E62A1" stroke="#1E62A1"/>
<mask id="path-22-inside-3_1144_129382" fill="white">
<path d="M136.332 104.998C136.332 104.998 136.931 107.99 137.559 108.152C138.187 108.314 136.332 104.998 136.332 104.998Z"/>
</mask>
<path d="M136.332 104.998C136.332 104.998 136.931 107.99 137.559 108.152C138.187 108.314 136.332 104.998 136.332 104.998Z" fill="#1E62A1"/>
<path d="M136.332 104.998L137.205 104.51L135.351 105.194L136.332 104.998ZM136.332 104.998C135.351 105.194 135.352 105.194 135.352 105.194C135.352 105.195 135.352 105.195 135.352 105.195C135.352 105.195 135.352 105.195 135.352 105.196C135.352 105.196 135.352 105.197 135.352 105.198C135.353 105.2 135.353 105.203 135.354 105.206C135.355 105.213 135.357 105.222 135.36 105.234C135.365 105.258 135.372 105.293 135.381 105.336C135.4 105.424 135.427 105.547 135.462 105.695C135.53 105.99 135.63 106.389 135.752 106.799C135.871 107.201 136.022 107.648 136.2 108.021C136.288 108.205 136.399 108.409 136.54 108.588C136.662 108.743 136.911 109.017 137.309 109.12L137.809 107.184C138.051 107.246 138.144 107.392 138.112 107.352C138.1 107.336 138.062 107.279 138.005 107.161C137.894 106.927 137.778 106.596 137.669 106.229C137.562 105.871 137.473 105.512 137.409 105.241C137.378 105.106 137.353 104.994 137.337 104.917C137.329 104.879 137.322 104.849 137.318 104.829C137.316 104.819 137.315 104.812 137.314 104.807C137.313 104.805 137.313 104.803 137.313 104.802C137.313 104.802 137.313 104.801 137.313 104.801C137.313 104.801 137.313 104.801 137.313 104.801C137.313 104.801 137.313 104.801 137.313 104.801C137.313 104.801 137.313 104.802 136.332 104.998ZM137.309 109.12C137.5 109.17 137.883 109.213 138.242 108.949C138.582 108.699 138.659 108.347 138.679 108.187C138.717 107.885 138.635 107.59 138.591 107.443C138.481 107.074 138.279 106.614 138.084 106.206C137.882 105.783 137.663 105.359 137.495 105.044C137.411 104.885 137.339 104.753 137.288 104.66C137.262 104.613 137.242 104.576 137.227 104.55C137.22 104.538 137.215 104.528 137.211 104.521C137.209 104.517 137.208 104.515 137.207 104.513C137.206 104.512 137.206 104.511 137.205 104.511C137.205 104.51 137.205 104.51 137.205 104.51C137.205 104.51 137.205 104.51 137.205 104.51C137.205 104.51 137.205 104.51 136.332 104.998C135.459 105.486 135.459 105.486 135.459 105.486C135.459 105.486 135.459 105.486 135.459 105.486C135.459 105.486 135.459 105.486 135.459 105.486C135.46 105.487 135.46 105.487 135.46 105.488C135.461 105.489 135.462 105.491 135.464 105.494C135.467 105.5 135.472 105.508 135.478 105.52C135.491 105.543 135.51 105.577 135.534 105.621C135.581 105.708 135.649 105.833 135.729 105.983C135.89 106.285 136.095 106.68 136.278 107.066C136.469 107.466 136.612 107.805 136.674 108.012C136.716 108.154 136.676 108.091 136.695 107.939C136.705 107.855 136.758 107.557 137.056 107.338C137.374 107.105 137.697 107.155 137.809 107.184L137.309 109.12Z" fill="#1E62A1" mask="url(#path-22-inside-3_1144_129382)"/>
<mask id="path-24-inside-4_1144_129382" fill="white">
<path d="M137.63 101.233C137.63 101.233 141.261 99.6989 141.096 100.638C140.931 101.578 137.63 101.233 137.63 101.233Z"/>
</mask>
<path d="M137.63 101.233C137.63 101.233 141.261 99.6989 141.096 100.638C140.931 101.578 137.63 101.233 137.63 101.233Z" fill="#1E62A1"/>
<path d="M137.63 101.233L137.241 100.311L137.526 102.227L137.63 101.233ZM137.63 101.233C138.019 102.154 138.019 102.154 138.019 102.154C138.019 102.154 138.019 102.154 138.019 102.154C138.019 102.154 138.019 102.154 138.019 102.154C138.019 102.154 138.02 102.154 138.02 102.153C138.022 102.153 138.024 102.152 138.027 102.151C138.032 102.148 138.042 102.144 138.054 102.139C138.078 102.129 138.115 102.114 138.161 102.095C138.255 102.057 138.39 102.003 138.552 101.942C138.878 101.817 139.301 101.664 139.712 101.541C140.147 101.411 140.481 101.341 140.661 101.334C140.777 101.33 140.667 101.359 140.497 101.261C140.385 101.197 140.249 101.078 140.167 100.888C140.088 100.706 140.097 100.547 140.111 100.465L142.081 100.811C142.116 100.612 142.116 100.355 142.002 100.092C141.885 99.8218 141.688 99.6391 141.493 99.527C141.156 99.3332 140.789 99.3281 140.588 99.3355C140.133 99.3522 139.59 99.4897 139.138 99.6252C138.662 99.7681 138.188 99.9398 137.838 100.073C137.662 100.141 137.514 100.199 137.41 100.242C137.358 100.263 137.317 100.28 137.288 100.292C137.274 100.298 137.262 100.302 137.255 100.306C137.251 100.307 137.247 100.309 137.245 100.31C137.244 100.31 137.243 100.31 137.242 100.311C137.242 100.311 137.242 100.311 137.242 100.311C137.241 100.311 137.241 100.311 137.241 100.311C137.241 100.311 137.241 100.311 137.63 101.233ZM140.111 100.465C140.18 100.076 140.505 100.077 140.198 100.17C139.988 100.233 139.66 100.274 139.264 100.288C138.883 100.302 138.499 100.29 138.205 100.273C138.059 100.265 137.939 100.256 137.856 100.249C137.814 100.246 137.783 100.243 137.762 100.241C137.751 100.24 137.744 100.239 137.739 100.238C137.737 100.238 137.735 100.238 137.734 100.238C137.734 100.238 137.734 100.238 137.734 100.238C137.734 100.238 137.734 100.238 137.734 100.238C137.734 100.238 137.734 100.238 137.734 100.238C137.734 100.238 137.734 100.238 137.63 101.233C137.526 102.227 137.526 102.227 137.526 102.227C137.527 102.227 137.527 102.227 137.527 102.227C137.527 102.227 137.528 102.227 137.528 102.227C137.529 102.227 137.53 102.227 137.531 102.228C137.533 102.228 137.536 102.228 137.54 102.229C137.548 102.229 137.559 102.23 137.573 102.232C137.6 102.234 137.64 102.238 137.689 102.242C137.787 102.25 137.926 102.261 138.092 102.27C138.422 102.289 138.873 102.304 139.338 102.287C139.788 102.27 140.317 102.222 140.772 102.085C141.13 101.978 141.93 101.67 142.081 100.811L140.111 100.465Z" fill="#1E62A1" mask="url(#path-24-inside-4_1144_129382)"/>
<path d="M141.994 98.4307C141.985 98.3594 141.965 98.2562 141.929 98.1181C141.842 97.7927 141.68 97.3318 141.432 96.7528C140.938 95.5981 140.121 94.0129 138.946 92.1701C137.871 90.4932 136.511 88.6089 134.828 86.6436L134.827 86.6421C134.351 86.0826 133.847 85.5659 133.326 85.0724L133.301 85.0596L133.25 85.0129C128.05 80.1932 121.068 78.9534 114.988 78.7506C111.636 78.6392 108.907 78.8446 107.021 79.0771C106.077 79.1933 105.344 79.3162 104.849 79.4096C104.602 79.4563 104.414 79.4956 104.289 79.523C104.227 79.5366 104.18 79.5473 104.149 79.5545L104.115 79.5625L104.108 79.5643L104.106 79.5647L104.106 79.5647L104.106 79.5648L104.029 79.5839L103.949 79.578L103.986 79.0793C103.949 79.578 103.949 79.578 103.949 79.578L103.948 79.5779L103.946 79.5777L103.936 79.577L103.894 79.574C103.857 79.5714 103.802 79.5676 103.729 79.5627C103.583 79.5529 103.367 79.539 103.087 79.5226C102.527 79.4896 101.712 79.4463 100.691 79.4053C98.65 79.3232 95.7905 79.2498 92.5187 79.2852C85.9653 79.356 77.7952 79.8625 71.2334 81.5901L71.2332 81.5902C64.6626 83.3166 58.3065 86.2577 53.8304 88.8853C51.59 90.2005 49.8395 91.4262 48.7733 92.3696C48.232 92.8487 47.9052 93.2221 47.7644 93.4731C47.7535 93.4926 47.7444 93.51 47.737 93.5253C48.5775 93.9379 49.4181 94.1553 50.062 94.2691C50.3977 94.3285 50.6766 94.3591 50.8697 94.3748C50.9662 94.3827 51.041 94.3868 51.0904 94.3889C51.1151 94.39 51.1335 94.3906 51.145 94.3909L51.1571 94.3912L51.1586 94.3912L51.1589 94.3912L51.159 94.3912L51.1592 94.3912L51.1593 94.3912L51.4601 94.3943L51.5976 94.6615L51.5978 94.6618L51.5979 94.662L51.598 94.6622L51.5981 94.6623L51.5998 94.6656L51.611 94.6863C51.6216 94.7057 51.6386 94.7362 51.6624 94.7771C51.71 94.8588 51.7847 94.9818 51.889 95.1397C52.0977 95.4555 52.4252 95.9107 52.8929 96.4539L52.8929 96.454C54.5569 98.3874 58.0166 101.441 64.2465 103.196C67.2989 104.048 70.2792 104.634 72.9334 105.034C75.8754 105.472 78.4224 105.684 80.2329 105.787C81.1381 105.838 81.8587 105.862 82.352 105.874C82.5987 105.879 82.7885 105.882 82.9161 105.883C82.9799 105.883 83.0281 105.883 83.0601 105.883L83.0959 105.883L83.1045 105.883L83.1064 105.883L83.1069 105.883L83.5366 105.88L83.6034 106.303L83.6034 106.303L83.6035 106.304L83.6036 106.304L83.6037 106.305L83.6038 106.305L83.6049 106.311C83.6065 106.319 83.6094 106.334 83.6139 106.354C83.6231 106.394 83.6385 106.455 83.6624 106.53C83.7106 106.681 83.791 106.882 83.9183 107.086C84.1671 107.483 84.5872 107.883 85.3354 107.952L141.994 98.4307ZM141.994 98.4307C141.992 98.4325 141.989 98.4345 141.987 98.4364C141.936 98.4743 141.858 98.5222 141.742 98.5769C141.507 98.6873 141.149 98.8116 140.615 98.9396C139.548 99.1953 137.846 99.451 135.183 99.6599C132.544 99.8632 127.115 99.6912 122.313 99.4649C119.919 99.3521 117.692 99.2264 116.063 99.1289C115.249 99.0802 114.584 99.0385 114.124 99.009C113.893 98.9942 113.714 98.9825 113.592 98.9745L113.453 98.9654L113.418 98.963L113.409 98.9624L113.407 98.9623L113.406 98.9622C113.406 98.9622 113.406 98.9622 113.372 99.4611L113.406 98.9622L113.254 98.952L113.123 99.0278L113.123 99.0278L113.122 99.0282L113.119 99.0298L113.107 99.037L113.056 99.0658C113.011 99.0914 112.943 99.1293 112.855 99.1781C112.678 99.2758 112.418 99.417 112.089 99.59C111.431 99.936 110.496 100.409 109.391 100.913C107.173 101.926 104.296 103.057 101.6 103.57L141.994 98.4307ZM89.7935 103.821L89.7932 103.821L89.7919 103.823L89.7861 103.832L89.7618 103.868C89.7401 103.899 89.7077 103.946 89.6656 104.006C89.5813 104.127 89.4582 104.299 89.3045 104.505C88.9964 104.919 88.5682 105.467 88.0844 106.007C87.598 106.55 87.069 107.07 86.5602 107.44C86.0307 107.825 85.6162 107.978 85.3356 107.952L89.7935 103.821ZM89.7935 103.821L89.7935 103.821M89.7935 103.821L89.7935 103.821M90.2916 103.606L90.2916 103.606L90.2921 103.606L90.2947 103.607L90.3064 103.609L90.3549 103.617C90.3982 103.623 90.4631 103.633 90.5482 103.646C90.7184 103.671 90.9689 103.705 91.2874 103.743C91.9243 103.82 92.8319 103.912 93.9102 103.971C96.071 104.091 98.8972 104.08 101.6 103.57L90.2916 103.606ZM90.2916 103.606L90.2915 103.606M90.2916 103.606L90.2915 103.606M90.2915 103.606L89.9732 103.553M90.2915 103.606L89.9732 103.553M89.9732 103.553L89.7935 103.821M89.9732 103.553L89.7935 103.821M89.7935 103.821L89.7935 103.821M89.7935 103.821L89.7935 103.821" fill="#FFFBC7" stroke="#1E62A1"/>
<path opacity="0.5" d="M56.6898 96.2217C56.6555 96.2042 56.622 96.1872 56.5893 96.1705C57.1759 96.186 58.0282 96.3086 59.0884 96.5241C61.4559 97.0053 64.7092 97.9171 67.9563 98.9315C71.2005 99.9449 74.422 101.055 76.7211 101.929C77.269 102.138 77.7618 102.332 78.1885 102.507C78.0055 102.489 77.8133 102.47 77.6127 102.448C76.3956 102.313 74.8897 102.093 73.3168 101.822C70.1615 101.279 66.7837 100.542 64.9455 99.9076C63.0951 99.2685 60.8083 98.233 58.973 97.3508C58.0577 96.9109 57.2593 96.5112 56.6898 96.2217Z" fill="#B89E09" stroke="#B89E09"/>
<path d="M142.102 87.8866C142.093 87.8153 142.073 87.7121 142.036 87.574C141.95 87.2486 141.787 86.7877 141.54 86.2087C141.046 85.054 140.228 83.4688 139.054 81.626C137.979 79.9491 136.618 78.0648 134.935 76.0995L134.934 76.098C134.459 75.5385 133.955 75.0218 133.433 74.5283L133.408 74.5155L133.358 74.4688C128.158 69.6491 121.175 68.4093 115.095 68.2065C111.743 68.0951 109.015 68.3005 107.128 68.533C106.185 68.6492 105.452 68.7721 104.957 68.8655C104.709 68.9122 104.521 68.9515 104.396 68.9789C104.334 68.9926 104.287 69.0032 104.257 69.0104L104.223 69.0184L104.215 69.0202L104.214 69.0206L104.213 69.0206L104.213 69.0207L104.136 69.0398L104.056 69.0339L104.093 68.5352C104.056 69.0339 104.056 69.0339 104.056 69.0339L104.056 69.0338L104.053 69.0336L104.043 69.0329L104.001 69.0299C103.965 69.0273 103.909 69.0235 103.836 69.0186C103.691 69.0088 103.475 68.9949 103.195 68.9785C102.635 68.9455 101.819 68.9023 100.799 68.8612C98.7574 68.7791 95.898 68.7057 92.6261 68.7411C86.0727 68.8119 77.9027 69.3184 71.3409 71.046L71.3406 71.0461C64.77 72.7725 58.4139 75.7136 53.9378 78.3412C51.6974 79.6564 49.9469 80.8821 48.8807 81.8255C48.3394 82.3046 48.0126 82.678 47.8718 82.929C47.8609 82.9485 47.8519 82.9659 47.8444 82.9812C48.6849 83.3938 49.5255 83.6112 50.1694 83.725C50.5051 83.7844 50.784 83.815 50.9771 83.8307C51.0736 83.8386 51.1484 83.8427 51.1978 83.8449C51.2225 83.8459 51.2409 83.8465 51.2524 83.8468L51.2645 83.8471L51.2661 83.8471L51.2663 83.8471L51.2665 83.8471L51.2666 83.8471L51.2667 83.8471L51.5675 83.8502L51.7051 84.1174L51.7052 84.1177L51.7053 84.1179L51.7054 84.1181L51.7055 84.1182L51.7073 84.1216L51.7184 84.1422C51.729 84.1616 51.7461 84.1921 51.7699 84.233C51.8175 84.3147 51.8921 84.4377 51.9964 84.5956C52.2051 84.9114 52.5326 85.3666 53.0003 85.9098L53.0004 85.9099C54.6643 87.8433 58.1241 90.8973 64.3539 92.6517C67.4064 93.5043 70.3866 94.09 73.0409 94.4898C75.9828 94.9277 78.5298 95.1401 80.3403 95.2429C81.2455 95.2943 81.9661 95.3183 82.4595 95.3295C82.7061 95.3351 82.8959 95.3375 83.0235 95.3384C83.0873 95.3389 83.1355 95.3391 83.1675 95.3391L83.2033 95.3391L83.2119 95.339L83.2139 95.339L83.2143 95.339L83.6441 95.3364L83.7108 95.7586L83.7108 95.7588L83.7109 95.7594L83.711 95.7601L83.7111 95.7605L83.7112 95.7609L83.7123 95.7667C83.7139 95.7751 83.7168 95.7898 83.7214 95.8097C83.7305 95.8498 83.7459 95.9106 83.7698 95.9855C83.818 96.1369 83.8984 96.3383 84.0257 96.5417C84.2745 96.9392 84.6947 97.3386 85.4428 97.4083L142.102 87.8866ZM142.102 87.8866C142.099 87.8884 142.097 87.8904 142.094 87.8923C142.043 87.9302 141.965 87.9781 141.849 88.0328C141.615 88.1432 141.256 88.2675 140.722 88.3955C139.656 88.6512 137.953 88.9069 135.291 89.1158C132.651 89.3191 127.223 89.1471 122.42 88.9208C120.027 88.808 117.8 88.6823 116.171 88.5848C115.356 88.5361 114.692 88.4944 114.231 88.4649C114 88.4501 113.821 88.4384 113.699 88.4304L113.56 88.4213L113.525 88.4189L113.516 88.4183L113.514 88.4182L113.513 88.4181C113.513 88.4181 113.513 88.4181 113.48 88.917L113.513 88.4181L113.362 88.4079L113.23 88.4837L113.23 88.4837L113.23 88.4841L113.227 88.4857L113.214 88.4929L113.163 88.5217C113.118 88.5473 113.05 88.5852 112.962 88.6341C112.785 88.7317 112.526 88.8729 112.197 89.0459C111.539 89.3919 110.604 89.8645 109.498 90.3694C107.281 91.3822 104.404 92.513 101.708 93.0257L142.102 87.8866ZM89.9009 93.2771L89.9007 93.2774L89.8993 93.2793L89.8935 93.288L89.8692 93.3237C89.8475 93.3553 89.8151 93.4022 89.773 93.4623C89.6887 93.5824 89.5656 93.7547 89.4119 93.9612C89.1038 94.3752 88.6756 94.9227 88.1918 95.4627C87.7054 96.0057 87.1764 96.5258 86.6676 96.8957C86.1381 97.2807 85.7236 97.4342 85.443 97.4083L89.9009 93.2771ZM89.9009 93.2771L89.9009 93.277M89.9009 93.2771L89.9009 93.277M90.399 93.0623L90.399 93.0623L90.3995 93.0623L90.4022 93.0628L90.4138 93.0647L90.4623 93.0724C90.5056 93.0792 90.5706 93.0892 90.6556 93.1016C90.8258 93.1264 91.0764 93.161 91.3948 93.1993C92.0318 93.2759 92.9393 93.3676 94.0176 93.4271C96.1784 93.5464 99.0046 93.5355 101.707 93.0259L90.399 93.0623ZM90.399 93.0623L90.399 93.0623M90.399 93.0623L90.399 93.0623M90.399 93.0623L90.0806 93.0088M90.399 93.0623L90.0806 93.0088M90.0806 93.0088L89.9009 93.277M90.0806 93.0088L89.9009 93.277M89.9009 93.277L89.9009 93.277M89.9009 93.277L89.9009 93.277" fill="white" stroke="#1E62A1"/>
<path d="M103.214 86.3691L88.3869 73.5215L99.5547 72.6528L112.742 84.418L103.214 86.3691Z" fill="#E5D050" stroke="#1E62A1"/>
</svg>
