<svg width="208" height="187" viewBox="0 0 208 187" fill="none" xmlns="http://www.w3.org/2000/svg">
<ellipse cx="103.533" cy="183.458" rx="61.5334" ry="3.45772" fill="#ECEFF1"/>
<path d="M71.6923 37.0033V0H8V149H16.3077V10.3955L46.3151 7.40066L46.448 7.52894L46.5865 7.37599L61.496 5.89586L61.6622 6.05867L61.8394 5.86132L70.0308 5.02752V37.0033H61.1692V40.9503H80V37.0033H71.6923ZM28.8025 2.58037L33.7871 7.15891L23.5077 8.18513L28.8025 2.58037ZM22.0788 7.40066L17.2271 1.48013H27.6726L22.0788 7.40066ZM29.9157 1.48013H40.1231L35.2049 6.3103L29.9157 1.48013ZM70.0308 2.10179V3.53752L68.7348 3.66579L70.0308 2.10179ZM67.2948 2.91586L65.8049 1.48013H68.48L67.2948 2.91586ZM63.6172 1.48013L61.5735 3.76447L59.2308 1.48013H63.6172ZM57.0431 1.48013L54.5785 4.23811L51.8757 1.48013H57.0431ZM49.7102 1.48013L46.3428 5.25941L42.3717 1.48013H49.7102ZM16.3077 2.86652L20.8991 8.44662L16.3077 8.90547V2.86652ZM36.8886 6.84808L41.2308 2.5705L44.8862 6.04881L36.8886 6.84808ZM50.8012 2.63463L53.3268 5.20513L48.0431 5.73305L50.8012 2.63463ZM56.0849 4.93377L58.1508 2.62477L60.1114 4.53414L56.0849 4.93377ZM64.7249 2.61983L66.0874 3.94702L63.3182 4.22331L64.7249 2.61983Z" fill="#ECEFF1"/>
<path d="M53.2805 64.3482H43.0115V59.4281H41.5445V64.3482H31.7646V55H29.8086V157.831H55.2365V57.9521H53.2805V64.3482ZM41.5445 72.2204H31.7646V66.8083H41.5445V72.2204ZM53.2805 72.2204H43.0115V66.8083H53.2805V72.2204Z" fill="#ECEFF1"/>
<path d="M204 162V137.945H201.863V126.482H198.733V86.6293H194.21V81.4855L184.562 77.1551V71.9737H183.222V86.6293H181.35V126.482H179.482V105.526H174.401V94.7259H172.983V126.482H169.125V114.398H166.582V111.309H160.699V100.768H157.477V93.3107H153.516V82.4494H152.103V93.3107H148.142V100.768H144.919V111.309H139.037V114.398H136.499V126.482H133.487V111.309H127.604V78.6597H125.731V75.0581H113.164V78.6597H110.489V102.315H99.7897V104.628H95.78V106.429V112.829V115.682H88.5623V84.8285H86.1516V78.2695H80.9389V55H79.467V78.2695H75.7262V84.8285H53.7751V82.6704H52.4401V97.3261H50.5672V97.5847H49.4425V112.24H47.5697V116.223H43.6137V105.427H42.1956V131.137H40.621V120.337H39.2029V137.179H38.3374V125.095H35.7995V122.011H29.9169V111.469H26.6944V104.012H22.7335V93.1461H21.3203V104.012H17.3594V111.469H14.1369V122.011H8.25428V125.095H5.71638V136.925H5.25672V137.179H4V162H204Z" fill="#ECEFF1"/>
<path d="M1 162H75" stroke="#E0E3E6" stroke-width="0.5" stroke-linecap="round"/>
<path d="M95 162H207" stroke="#E0E3E6" stroke-width="0.5" stroke-linecap="round"/>
<path d="M80 162H89" stroke="#E0E3E6" stroke-width="0.5" stroke-linecap="round"/>
<path d="M57 182.5L80.5338 166.94L85.1873 171.043L92.0257 164.472L95.0363 171.043L98.8725 172.961L103.251 170.493L105.188 166.94L113.375 170.768L118.304 166.665L143.844 182.5" fill="#EEE4B0"/>
<path d="M57 182.5L80.5338 166.94L85.1873 171.043L92.0257 164.472L95.0363 171.043L98.8725 172.961L103.251 170.493L105.188 166.94L113.375 170.768L118.304 166.665L143.844 182.5" stroke="#1E62A1" stroke-miterlimit="10" stroke-linecap="round"/>
<path d="M76.707 177.581L83.5204 173.929V177.581L90.6924 170.042" stroke="#1E62A1" stroke-width="0.5" stroke-miterlimit="10" stroke-linecap="round"/>
<path d="M95.8043 172.961L92.5186 175.88H95.8043L92.5186 180.742" stroke="#1E62A1" stroke-width="0.5" stroke-miterlimit="10" stroke-linecap="round"/>
<path d="M106.776 173.498L108.594 176.542L110.304 173.498L117.109 181.162" stroke="#1E62A1" stroke-width="0.5" stroke-miterlimit="10" stroke-linecap="round"/>
<path d="M105.483 163.314L114.199 153.866" stroke="#1E62A1" stroke-miterlimit="10" stroke-linecap="round"/>
<path d="M93.6852 161.634L88.1924 150.162" stroke="#1E62A1" stroke-miterlimit="10" stroke-linecap="round"/>
<path d="M78.1359 70.9966L88.0434 72.4075L87.3273 77.4356L77.4199 76.0247C76.0328 75.8272 75.0699 74.5444 75.2674 73.1574C75.4649 71.7703 76.7476 70.8074 78.1347 71.0049L78.1359 70.9966Z" fill="#455A64"/>
<path d="M135.905 79.2232L145.813 80.6341C147.2 80.8316 148.163 82.1143 147.965 83.5014C147.768 84.8884 146.485 85.8514 145.098 85.6539L135.19 84.243L135.906 79.2149L135.905 79.2232Z" fill="#455A64"/>
<path d="M98.9383 144.44L105.329 145.35L100.656 168.641L99.4375 169.268C98.9105 169.538 98.2724 169.464 97.824 169.064L96.8459 168.183L98.9395 144.432L98.9383 144.44Z" fill="#D1D1DA" stroke="#727272" stroke-miterlimit="10"/>
<path d="M99.1055 130.649L109.013 132.06L107.251 144.436C107.159 145.08 106.565 145.526 105.921 145.434L98.3497 144.356C97.7057 144.265 97.2596 143.67 97.3513 143.026L99.1137 130.65L99.1055 130.649Z" fill="#04447F" stroke="#04447F"/>
<path d="M125.392 64.3664L121.903 63.3136L105.776 61.3877L102.495 61.2995C98.9206 61.2032 95.8471 63.7981 95.3427 67.34L92.2411 89.12C92.0624 90.3749 92.471 91.6461 93.3501 92.5715L98.9005 98.374C99.4952 98.9894 100.271 99.3948 101.122 99.5159L102.129 99.6593L99.1909 120.292C99.1309 120.713 98.7348 121.01 98.3137 120.95L98.0743 120.916C97.6532 120.856 97.2571 121.153 97.1971 121.575L96.0778 129.434C96.0179 129.856 96.3153 130.252 96.7363 130.312L111.276 132.382C111.697 132.442 112.093 132.145 112.153 131.724L113.272 123.864C113.332 123.443 113.035 123.046 112.614 122.987C112.192 122.927 111.895 122.53 111.955 122.109L114.893 101.477L115.669 101.588C116.511 101.707 117.369 101.543 118.102 101.125L125.137 97.0981C126.246 96.4643 127.003 95.3506 127.183 94.0874L130.315 72.0928C130.805 68.6499 128.711 65.3698 125.384 64.3653L125.392 64.3664Z" fill="#E5D050" stroke="#1E62A1"/>
<path d="M93.3124 69.1903L95.0545 69.4384L93.1956 82.4915L91.4536 82.2435C88.8529 81.8731 87.032 79.4573 87.4035 76.8484L87.9173 73.2404C88.2877 70.6397 90.7034 68.8188 93.3124 69.1903Z" fill="white" stroke="#1E62A1"/>
<path d="M130.003 74.4153L131.745 74.6633C134.346 75.0337 136.167 77.4494 135.795 80.0584L135.281 83.6664C134.911 86.2671 132.495 88.088 129.886 87.7165L128.144 87.4684L130.003 74.4153Z" fill="white" stroke="#1E62A1"/>
<path d="M92.9679 131.502C90.1595 128.213 90.5501 123.281 93.8393 120.473" stroke="#455A64" stroke-linecap="round"/>
<path d="M89.6291 129.03C87.8237 126.92 88.0724 123.754 90.1827 121.949" stroke="#455A64" stroke-linecap="round"/>
<path d="M114.665 134.592C118.28 132.217 119.281 127.373 116.907 123.758" stroke="#455A64" stroke-linecap="round"/>
<path d="M118.567 133.151C120.89 131.629 121.535 128.52 120.012 126.197" stroke="#455A64" stroke-linecap="round"/>
<path d="M102.872 86.6409C107.55 83.129 114.172 84.0719 117.684 88.7502" stroke="#455A64" stroke-width="0.5" stroke-linecap="round"/>
<path d="M102.485 89.3574C107.164 85.8455 113.785 86.7884 117.297 91.4667" stroke="#455A64" stroke-width="0.5" stroke-linecap="round"/>
<path d="M103.259 83.9245C107.937 80.4125 114.559 81.3555 118.071 86.0337" stroke="#455A64" stroke-width="0.5" stroke-linecap="round"/>
</svg>
