<?xml version="1.0" encoding="utf-8"?>
<svg xmlns="http://www.w3.org/2000/svg">
  <symbol id="create" viewBox="0 0 208 187" preserveAspectRatio="none" fill="none">
    <ellipse cx="103.533" cy="183.458" rx="61.5334" ry="3.45772" fill="#ECEFF1"/>
    <path d="M71.6923 37.0033V0H8V149H16.3077V10.3955L46.3151 7.40066L46.448 7.52894L46.5865 7.37599L61.496 5.89586L61.6622 6.05867L61.8394 5.86132L70.0308 5.02752V37.0033H61.1692V40.9503H80V37.0033H71.6923ZM28.8025 2.58037L33.7871 7.15891L23.5077 8.18513L28.8025 2.58037ZM22.0788 7.40066L17.2271 1.48013H27.6726L22.0788 7.40066ZM29.9157 1.48013H40.1231L35.2049 6.3103L29.9157 1.48013ZM70.0308 2.10179V3.53752L68.7348 3.66579L70.0308 2.10179ZM67.2948 2.91586L65.8049 1.48013H68.48L67.2948 2.91586ZM63.6172 1.48013L61.5735 3.76447L59.2308 1.48013H63.6172ZM57.0431 1.48013L54.5785 4.23811L51.8757 1.48013H57.0431ZM49.7102 1.48013L46.3428 5.25941L42.3717 1.48013H49.7102ZM16.3077 2.86652L20.8991 8.44662L16.3077 8.90547V2.86652ZM36.8886 6.84808L41.2308 2.5705L44.8862 6.04881L36.8886 6.84808ZM50.8012 2.63463L53.3268 5.20513L48.0431 5.73305L50.8012 2.63463ZM56.0849 4.93377L58.1508 2.62477L60.1114 4.53414L56.0849 4.93377ZM64.7249 2.61983L66.0874 3.94702L63.3182 4.22331L64.7249 2.61983Z" fill="#ECEFF1"/>
    <path d="M53.2805 64.3482H43.0115V59.4281H41.5445V64.3482H31.7646V55H29.8086V157.831H55.2365V57.9521H53.2805V64.3482ZM41.5445 72.2204H31.7646V66.8083H41.5445V72.2204ZM53.2805 72.2204H43.0115V66.8083H53.2805V72.2204Z" fill="#ECEFF1"/>
    <path d="M204 162V137.945H201.863V126.482H198.733V86.6293H194.21V81.4855L184.562 77.1551V71.9737H183.222V86.6293H181.35V126.482H179.482V105.526H174.401V94.7259H172.983V126.482H169.125V114.398H166.582V111.309H160.699V100.768H157.477V93.3107H153.516V82.4494H152.103V93.3107H148.142V100.768H144.919V111.309H139.037V114.398H136.499V126.482H133.487V111.309H127.604V78.6597H125.731V75.0581H113.164V78.6597H110.489V102.315H99.7897V104.628H95.78V106.429V112.829V115.682H88.5623V84.8285H86.1516V78.2695H80.9389V55H79.467V78.2695H75.7262V84.8285H53.7751V82.6704H52.4401V97.3261H50.5672V97.5847H49.4425V112.24H47.5697V116.223H43.6137V105.427H42.1956V131.137H40.621V120.337H39.2029V137.179H38.3374V125.095H35.7995V122.011H29.9169V111.469H26.6944V104.012H22.7335V93.1461H21.3203V104.012H17.3594V111.469H14.1369V122.011H8.25428V125.095H5.71638V136.925H5.25672V137.179H4V162H204Z" fill="#ECEFF1"/>
    <path d="M1 162H75" stroke="#E0E3E6" stroke-width="0.5" stroke-linecap="round"/>
    <path d="M95 162H207" stroke="#E0E3E6" stroke-width="0.5" stroke-linecap="round"/>
    <path d="M80 162H89" stroke="#E0E3E6" stroke-width="0.5" stroke-linecap="round"/>
    <path d="M80.8994 100.622H126.307C126.785 100.622 127.172 100.235 127.172 99.7569V83.0885C127.172 82.6108 126.785 82.2235 126.307 82.2235H80.8994C80.4216 82.2235 80.0343 82.6108 80.0343 83.0885V99.7569C80.0343 100.235 80.4216 100.622 80.8994 100.622Z" fill="#EEE4B0" stroke="#1E62A1" stroke-width="0.7" stroke-miterlimit="10"/>
    <path d="M104.465 119.861H149.872C150.35 119.861 150.737 119.474 150.737 118.996V102.328C150.737 101.85 150.35 101.463 149.872 101.463H104.465C103.987 101.463 103.6 101.85 103.6 102.328V118.996C103.6 119.474 103.987 119.861 104.465 119.861Z" fill="#EEE4B0" stroke="#1E62A1" stroke-width="0.7" stroke-miterlimit="10"/>
    <path d="M56.4297 119.861H101.837C102.315 119.861 102.702 119.474 102.702 118.996V102.328C102.702 101.85 102.315 101.463 101.837 101.463H56.4297C55.9519 101.463 55.5646 101.85 55.5646 102.328V118.996C55.5646 119.474 55.9519 119.861 56.4297 119.861Z" fill="#E5D050" stroke="#1E62A1" stroke-width="0.7" stroke-miterlimit="10"/>
    <path d="M128.927 139.085H174.334C174.812 139.085 175.199 138.698 175.199 138.22V121.552C175.199 121.074 174.812 120.686 174.334 120.686H128.927C128.449 120.686 128.062 121.074 128.062 121.552V138.22C128.062 138.698 128.449 139.085 128.927 139.085Z" fill="#EEE4B0" stroke="#1E62A1" stroke-width="0.7" stroke-miterlimit="10"/>
    <path d="M80.8994 139.085H126.307C126.785 139.085 127.172 138.698 127.172 138.22V121.552C127.172 121.074 126.785 120.686 126.307 120.686H80.8994C80.4216 120.686 80.0343 121.074 80.0343 121.552V138.22C80.0343 138.698 80.4216 139.085 80.8994 139.085Z" fill="#E5D050" stroke="#1E62A1" stroke-width="0.7" stroke-miterlimit="10"/>
    <path d="M152.491 119.861H174.334C174.812 119.861 175.199 119.474 175.199 118.996V102.328C175.199 101.85 174.812 101.463 174.334 101.463H152.491C152.014 101.463 151.626 101.85 151.626 102.328V118.996C151.626 119.474 152.014 119.861 152.491 119.861Z" fill="#E5D050" stroke="#1E62A1" stroke-width="0.7" stroke-miterlimit="10"/>
    <path d="M104.465 158.308H149.872C150.35 158.308 150.737 157.921 150.737 157.443V140.775C150.737 140.297 150.35 139.91 149.872 139.91H104.465C103.987 139.91 103.6 140.297 103.6 140.775V157.443C103.6 157.921 103.987 158.308 104.465 158.308Z" fill="#E5D050" stroke="#1E62A1" stroke-width="0.7" stroke-miterlimit="10"/>
    <path d="M56.4297 158.308H101.837C102.315 158.308 102.702 157.921 102.702 157.443V140.775C102.702 140.297 102.315 139.91 101.837 139.91H56.4297C55.9519 139.91 55.5646 140.297 55.5646 140.775V157.443C55.5646 157.921 55.9519 158.308 56.4297 158.308Z" fill="#EEE4B0" stroke="#1E62A1" stroke-width="0.7" stroke-miterlimit="10"/>
    <path d="M80.8994 177.54H126.307C126.785 177.54 127.172 177.153 127.172 176.675V160.007C127.172 159.529 126.785 159.142 126.307 159.142H80.8994C80.4216 159.142 80.0343 159.529 80.0343 160.007V176.675C80.0343 177.153 80.4216 177.54 80.8994 177.54Z" fill="#EEE4B0" fill-opacity="0.9" stroke="#1E62A1" stroke-width="0.7" stroke-miterlimit="10"/>
    <path d="M32.8651 177.54H78.2726C78.7504 177.54 79.1377 177.153 79.1377 176.675V160.007C79.1377 159.529 78.7504 159.142 78.2726 159.142H32.8651C32.3874 159.142 32.0001 159.529 32.0001 160.007V176.675C32.0001 177.153 32.3874 177.54 32.8651 177.54Z" fill="#E5D050" stroke="#1E62A1" stroke-width="0.7" stroke-miterlimit="10"/>
    <path d="M128.927 177.54H174.334C174.812 177.54 175.199 177.153 175.199 176.675V160.007C175.199 159.529 174.812 159.142 174.334 159.142H128.927C128.449 159.142 128.062 159.529 128.062 160.007V176.675C128.062 177.153 128.449 177.54 128.927 177.54Z" fill="#E5D050" stroke="#1E62A1" stroke-width="0.7" stroke-miterlimit="10"/>
    <path d="M81.9102 94.7096C83.9717 94.2536 86.1784 94.6105 88.429 96.136C90.246 97.3703 91.96 98.9043 94.2072 99.276C98.3233 99.9669 102.122 96.5967 106.319 95.9789C111.432 95.2207 116.169 98.9216 117.677 103.371C119.184 107.82 118.157 112.748 116.614 117.307C114.623 123.178 111.234 128.94 113.589 134.894C116.247 141.616 121.571 147.174 123.495 154.223C126.041 163.544 117.726 169.113 108.215 170.471C99.8139 171.675 91.0732 169.659 84.5276 165.012C76.9575 159.627 71.2828 150.202 74.403 141.171C75.3526 138.433 77.2018 135.764 77.514 132.885C77.8635 129.653 76.347 126.462 74.8518 123.703C72.872 120.038 70.3467 116.093 70.2716 111.824C70.1675 106.089 75.2478 96.1725 81.91 94.7016L81.9102 94.7096Z" fill="#F4F7F9" fill-opacity="0.95" stroke="#1E62A1" stroke-miterlimit="10"/>
    <path d="M75.2321 106.342C75.0803 104.792 75.8281 103.311 76.5323 101.975C78.4199 98.2065 82.794 96.5976 86.5895 98.5885C87.2735 98.9442 87.9533 99.4201 88.3032 100.115C87.8046 99.5369 87.1363 99.1728 86.4404 98.9537C82.7599 97.5763 79.0918 98.9472 77.0711 102.295C76.2926 103.561 75.4015 104.814 75.2321 106.342Z" fill="#1E62A1"/>
    <path d="M107.622 99.2885C109.907 99.042 112.064 100.394 113.447 102.131C116.275 105.738 116.381 111 114.567 115.094C112.84 119.146 109.523 122.534 109.067 127.003C108.132 134.893 110.8 139.058 115.715 144.869C110.379 139.432 107.44 134.826 108.344 126.929C108.723 122.31 112.101 118.816 113.901 114.802C116.61 109.326 114.941 99.6245 107.622 99.2805L107.622 99.2885Z" fill="#1E62A1"/>
    <path d="M78.2541 144.963C81.7929 146.946 87.0386 146.841 88.9314 142.719C88.0034 147.724 81.3735 148.161 78.2541 144.963Z" fill="#1E62A1"/>
    <path d="M68.1487 134.089L62.7433 138.149L63.3879 139.007L68.7933 134.947L68.1487 134.089Z" fill="#04447F" stroke="#04447F" stroke-miterlimit="10"/>
    <path d="M66.7487 130.925L64.2545 121.835C63.4189 118.775 65.1204 115.59 68.1376 114.601L101.564 103.581C106.178 101.647 110.341 107.119 107.558 111.419C107.837 111.461 92.6246 132.61 86.3821 141.266C84.9055 143.321 82.0963 143.877 79.9397 142.557L71.6745 137.483C69.2591 136.001 67.5002 133.654 66.7487 130.925Z" fill="#95959F" stroke="#1E62A1" stroke-miterlimit="10"/>
    <path d="M67.8543 132.713L78.6519 124.653C79.4923 124.018 80.6961 124.198 81.3062 125.061C81.9015 125.892 81.7159 127.04 80.9004 127.652L70.0093 135.635L69.0691 134.592C68.8456 134.343 68.6392 134.063 68.4735 133.769L67.8546 132.705L67.8543 132.713Z" fill="white" fill-opacity="0.45"/>
    <path d="M65.2075 141.466L60.8802 135.652L42.5206 149.61C40.9302 150.819 40.6552 153.118 41.9221 154.662C43.1195 156.132 45.2661 156.394 46.7899 155.254L65.2078 141.458L65.2075 141.466Z" fill="#04447F"/>
    <path d="M70.4204 115.517C79.3136 112.27 89.1865 108.97 98.246 106.226C89.3528 109.473 79.4798 112.773 70.4204 115.517Z" fill="#1E62A1"/>
  </symbol>
  <symbol id="error" viewBox="0 0 208 187" preserveAspectRatio="none" fill="none">
    <path d="M71.6923 37.0033V0H8V149H16.3077V10.3955L46.3151 7.40066L46.448 7.52894L46.5865 7.37599L61.496 5.89586L61.6622 6.05867L61.8394 5.86132L70.0308 5.02752V37.0033H61.1692V40.9503H80V37.0033H71.6923ZM28.8025 2.58037L33.7871 7.15891L23.5077 8.18513L28.8025 2.58037ZM22.0788 7.40066L17.2271 1.48013H27.6726L22.0788 7.40066ZM29.9157 1.48013H40.1231L35.2049 6.3103L29.9157 1.48013ZM70.0308 2.10179V3.53752L68.7348 3.66579L70.0308 2.10179ZM67.2948 2.91586L65.8049 1.48013H68.48L67.2948 2.91586ZM63.6172 1.48013L61.5735 3.76447L59.2308 1.48013H63.6172ZM57.0431 1.48013L54.5785 4.23811L51.8757 1.48013H57.0431ZM49.7102 1.48013L46.3428 5.25941L42.3717 1.48013H49.7102ZM16.3077 2.86652L20.8991 8.44662L16.3077 8.90547V2.86652ZM36.8886 6.84808L41.2308 2.5705L44.8862 6.04881L36.8886 6.84808ZM50.8012 2.63463L53.3268 5.20513L48.0431 5.73305L50.8012 2.63463ZM56.0849 4.93377L58.1508 2.62477L60.1114 4.53414L56.0849 4.93377ZM64.7249 2.61983L66.0874 3.94702L63.3182 4.22331L64.7249 2.61983Z" fill="#ECEFF1"/>
    <path d="M53.2805 64.3482H43.0115V59.4281H41.5445V64.3482H31.7646V55H29.8086V157.831H55.2365V57.9521H53.2805V64.3482ZM41.5445 72.2204H31.7646V66.8083H41.5445V72.2204ZM53.2805 72.2204H43.0115V66.8083H53.2805V72.2204Z" fill="#ECEFF1"/>
    <path d="M204 162V137.945H201.863V126.482H198.733V86.6293H194.21V81.4855L184.562 77.1551V71.9737H183.222V86.6293H181.35V126.482H179.482V105.526H174.401V94.7259H172.983V126.482H169.125V114.398H166.582V111.309H160.699V100.768H157.477V93.3107H153.516V82.4494H152.103V93.3107H148.142V100.768H144.919V111.309H139.037V114.398H136.499V126.482H133.487V111.309H127.604V78.6597H125.731V75.0581H113.164V78.6597H110.489V102.315H99.7897V104.628H95.78V106.429V112.829V115.682H88.5623V84.8285H86.1516V78.2695H80.9389V55H79.467V78.2695H75.7262V84.8285H53.7751V82.6704H52.4401V97.3261H50.5672V97.5847H49.4425V112.24H47.5697V116.223H43.6137V105.427H42.1956V131.137H40.621V120.337H39.2029V137.179H38.3374V125.095H35.7995V122.011H29.9169V111.469H26.6944V104.012H22.7335V93.1461H21.3203V104.012H17.3594V111.469H14.1369V122.011H8.25428V125.095H5.71638V136.925H5.25672V137.179H4V162H204Z" fill="#ECEFF1"/>
    <path d="M1 162H75" stroke="#E0E3E6" stroke-width="0.5" stroke-linecap="round"/>
    <path d="M95 162H207" stroke="#E0E3E6" stroke-width="0.5" stroke-linecap="round"/>
    <path d="M80 162H89" stroke="#E0E3E6" stroke-width="0.5" stroke-linecap="round"/>
    <ellipse cx="103.685" cy="166.565" rx="91.6854" ry="19.9551" fill="#F7F2DD" fill-opacity="0.88"/>
    <ellipse cx="103.788" cy="166.994" rx="57.2783" ry="9.01007" fill="#64676A"/>
    <path fill-rule="evenodd" clip-rule="evenodd" d="M155.889 170.743C159.213 169.601 161.066 168.332 161.066 166.994C161.066 162.018 135.422 157.984 103.788 157.984C72.1539 157.984 46.5095 162.018 46.5095 166.994C46.5095 168.716 49.5791 170.325 54.9043 171.693C63.9465 168.588 83.8749 166.431 107.006 166.431C127.695 166.431 145.822 168.156 155.889 170.743Z" fill="#B0B2B5"/>
    <path d="M33.3275 139.738L39.8635 162.47H22.9483L29.4844 139.738C29.6289 139.347 29.8889 139.01 30.23 138.771C30.5746 138.53 30.9851 138.4 31.4059 138.4C31.8267 138.4 32.2373 138.53 32.5819 138.771C32.9229 139.01 33.1829 139.347 33.3275 139.738Z" fill="#E5D050" stroke="#1E62A1" stroke-width="0.8"/>
    <path d="M34.1832 142.704L35.3612 146.807H27.4513L28.6293 142.704H34.1832Z" fill="#F4F7F9" stroke="#1E62A1" stroke-width="0.8"/>
    <path d="M36.5164 150.837L37.6987 154.945H25.1127L26.2909 150.837H36.5164Z" fill="#F4F7F9" stroke="#1E62A1" stroke-width="0.8"/>
    <path d="M19.4 163.638V162.89H43.409V163.638H19.4Z" fill="#04447F" stroke="#04447F" stroke-width="0.8"/>
    <path d="M84.1852 110.843L84.1872 110.593L83.9372 110.591L80.0647 110.561L79.8147 110.559L79.8128 110.809L79.2626 181.234L79.2606 181.484L79.5106 181.486L83.3831 181.516L83.6331 181.518L83.6351 181.268L84.1852 110.843Z" fill="#1E62A1" stroke="#1E62A1" stroke-width="0.5"/>
    <mask id="mask0_13965_57906" style="mask-type:luminance" maskUnits="userSpaceOnUse" x="67" y="115" width="61" height="51">
    <path d="M106.573 153.883L100.052 165.742L67.2256 165.201L67.4486 115.803L127.442 115.918L106.573 153.883Z" fill="white"/>
    </mask>
    <g mask="url(#mask0_13965_57906)">
    <path d="M115.674 136.5L107.575 136.492L117.435 118.767L117.445 118.767L125.325 118.772L115.674 136.5Z" fill="white" stroke="#1E62A1"/>
    <path d="M117.436 118.767L107.575 136.492L107.565 136.491L94.4869 136.468L104.347 118.752L104.357 118.753L117.436 118.767Z" fill="#E5D050" stroke="#1E62A1"/>
    <path d="M104.347 118.752L94.4869 136.468L81.3988 136.444L91.2591 118.738L104.347 118.752Z" fill="white" stroke="#1E62A1"/>
    <path d="M91.2591 118.738L81.3988 136.444L68.7399 136.427L68.7529 135.64L78.1708 118.724L91.2591 118.738Z" fill="#E5D050" stroke="#1E62A1"/>
    <path d="M78.1709 118.724L68.7529 135.64L69.0319 118.717L78.1709 118.724Z" fill="white" stroke="#1E62A1"/>
    <path d="M89.8762 144.75L80.0157 162.465L68.3109 162.445L68.3531 159.884L76.7879 144.736L89.8762 144.75Z" fill="#E5D050" stroke="#1E62A1"/>
    <path d="M102.964 144.764L93.0942 162.489L80.0157 162.465L89.8761 144.75L102.964 144.764Z" fill="white" stroke="#1E62A1"/>
    <path d="M101.184 162.498L93.0943 162.489L102.964 144.764L110.882 144.77L101.184 162.498Z" fill="#E5D050" stroke="#1E62A1"/>
    <path d="M76.7879 144.736L68.3531 159.884L68.603 144.726L76.7879 144.736Z" fill="white" stroke="#1E62A1"/>
    </g>
    <path d="M81.9712 111.56C83.8411 111.591 85.3821 110.091 85.4131 108.211C85.4441 106.33 83.9534 104.78 82.0836 104.749C80.2137 104.718 78.6727 106.218 78.6417 108.099C78.6107 109.98 80.1014 111.53 81.9712 111.56Z" fill="#E5D050" stroke="#1E62A1"/>
    <path d="M165.492 100.808L161.62 100.891L163.137 171.302L167.008 171.218L165.492 100.808Z" fill="#1E62A1" stroke="#1E62A1" stroke-width="0.5"/>
    <path d="M163.55 101.589C165.42 101.565 166.917 100.021 166.893 98.1399C166.868 96.2589 165.333 94.7535 163.463 94.7775C161.593 94.8016 160.097 96.346 160.121 98.227C160.145 100.108 161.681 101.613 163.55 101.589Z" fill="#E5D050" stroke="#1E62A1"/>
    <mask id="mask1_13965_57906" style="mask-type:luminance" maskUnits="userSpaceOnUse" x="113" y="104" width="68" height="53">
    <path d="M180.284 155.139L179.639 104.971L139.046 106.165L113.13 156.771L180.284 155.139Z" fill="white"/>
    </mask>
    <g mask="url(#mask1_13965_57906)">
    <path d="M168.386 108.196L159.031 126.222L145.948 126.583L155.293 108.566L168.386 108.196Z" fill="white" stroke="#1E62A1"/>
    <path d="M155.293 108.566L145.948 126.583L132.865 126.943L142.21 108.936L155.293 108.566Z" fill="#E5D050" stroke="#1E62A1"/>
    <path d="M137.566 109.063L142.21 108.936L132.865 126.943L128.345 127.068L137.566 109.063Z" fill="white" stroke="#1E62A1"/>
    <path d="M132.865 126.943L128.631 127.074L137.853 109.069L142.21 108.936L132.865 126.943Z" fill="white" stroke="#1E62A1"/>
    <path d="M124.58 135.455L128.508 135.347L119.163 153.354L115.224 153.462L124.58 135.455Z" fill="#E5D050" stroke="#1E62A1"/>
    <path d="M141.592 134.987L132.246 152.994L119.163 153.354L128.508 135.347L141.592 134.987Z" fill="white" stroke="#1E62A1"/>
    <path d="M154.675 134.617L145.329 152.633L132.246 152.994L141.592 134.987L141.601 134.977L154.675 134.617Z" fill="#E5D050" stroke="#1E62A1"/>
    <path d="M167.758 134.247L158.412 152.264L145.329 152.633L154.675 134.617L167.758 134.247Z" fill="white" stroke="#1E62A1"/>
    <path d="M177.737 139.531L177.737 139.541L171.323 151.906L171.314 151.906L158.412 152.264L167.758 134.247L177.646 133.967L177.737 139.531Z" fill="#E5D050" stroke="#1E62A1"/>
    <path d="M177.941 151.725L171.323 151.906L177.737 139.541L177.941 151.725Z" fill="white" stroke="#1E62A1"/>
    <path d="M177.438 115.593L172.114 125.862L159.031 126.222L168.386 108.196L177.312 107.947L177.438 115.593Z" fill="#E5D050" stroke="#1E62A1"/>
    <path d="M177.607 125.705L172.114 125.862L177.438 115.593L177.607 125.705Z" fill="white" stroke="#1E62A1"/>
    </g>
  </symbol>
  <symbol id="noResult" viewBox="0 0 208 187" preserveAspectRatio="none" fill="none">
    <ellipse cx="103.533" cy="183.458" rx="61.5334" ry="3.45772" fill="#ECEFF1"/>
    <path d="M71.6923 37.0033V0H8V149H16.3077V10.3955L46.3151 7.40066L46.448 7.52894L46.5865 7.37599L61.496 5.89586L61.6622 6.05867L61.8394 5.86132L70.0308 5.02752V37.0033H61.1692V40.9503H80V37.0033H71.6923ZM28.8025 2.58037L33.7871 7.15891L23.5077 8.18513L28.8025 2.58037ZM22.0788 7.40066L17.2271 1.48013H27.6726L22.0788 7.40066ZM29.9157 1.48013H40.1231L35.2049 6.3103L29.9157 1.48013ZM70.0308 2.10179V3.53752L68.7348 3.66579L70.0308 2.10179ZM67.2948 2.91586L65.8049 1.48013H68.48L67.2948 2.91586ZM63.6172 1.48013L61.5735 3.76447L59.2308 1.48013H63.6172ZM57.0431 1.48013L54.5785 4.23811L51.8757 1.48013H57.0431ZM49.7102 1.48013L46.3428 5.25941L42.3717 1.48013H49.7102ZM16.3077 2.86652L20.8991 8.44662L16.3077 8.90547V2.86652ZM36.8886 6.84808L41.2308 2.5705L44.8862 6.04881L36.8886 6.84808ZM50.8012 2.63463L53.3268 5.20513L48.0431 5.73305L50.8012 2.63463ZM56.0849 4.93377L58.1508 2.62477L60.1114 4.53414L56.0849 4.93377ZM64.7249 2.61983L66.0874 3.94702L63.3182 4.22331L64.7249 2.61983Z" fill="#ECEFF1"/>
    <path d="M53.2805 64.3482H43.0115V59.4281H41.5445V64.3482H31.7646V55H29.8086V157.831H55.2365V57.9521H53.2805V64.3482ZM41.5445 72.2204H31.7646V66.8083H41.5445V72.2204ZM53.2805 72.2204H43.0115V66.8083H53.2805V72.2204Z" fill="#ECEFF1"/>
    <path d="M204 162V137.945H201.863V126.482H198.733V86.6293H194.21V81.4855L184.562 77.1551V71.9737H183.222V86.6293H181.35V126.482H179.482V105.526H174.401V94.7259H172.983V126.482H169.125V114.398H166.582V111.309H160.699V100.768H157.477V93.3107H153.516V82.4494H152.103V93.3107H148.142V100.768H144.919V111.309H139.037V114.398H136.499V126.482H133.487V111.309H127.604V78.6597H125.731V75.0581H113.164V78.6597H110.489V102.315H99.7897V104.628H95.78V106.429V112.829V115.682H88.5623V84.8285H86.1516V78.2695H80.9389V55H79.467V78.2695H75.7262V84.8285H53.7751V82.6704H52.4401V97.3261H50.5672V97.5847H49.4425V112.24H47.5697V116.223H43.6137V105.427H42.1956V131.137H40.621V120.337H39.2029V137.179H38.3374V125.095H35.7995V122.011H29.9169V111.469H26.6944V104.012H22.7335V93.1461H21.3203V104.012H17.3594V111.469H14.1369V122.011H8.25428V125.095H5.71638V136.925H5.25672V137.179H4V162H204Z" fill="#ECEFF1"/>
    <path d="M1 162H75" stroke="#E0E3E6" stroke-width="0.5" stroke-linecap="round"/>
    <path d="M95 162H207" stroke="#E0E3E6" stroke-width="0.5" stroke-linecap="round"/>
    <path d="M80 162H89" stroke="#E0E3E6" stroke-width="0.5" stroke-linecap="round"/>
    <path d="M151.701 84.1542C142.393 65.8799 126.53 55.2934 114.345 61.4939L63.7267 87.267C50.3644 94.1295 48.9028 114.083 57.9659 131.875C67.2738 150.157 84.6932 159.949 96.8789 153.741L146.836 128.258C158.083 121.466 160.724 101.89 151.694 84.1535L151.701 84.1542Z" fill="#F4F7F9" stroke="#1E62A1" stroke-width="1.3" stroke-miterlimit="10"/>
    <path d="M95.2061 150.459C86.1893 155.052 73.998 149.92 65.2981 138.809C75.7802 134.482 80.949 118.619 76.9052 101.821C75.7866 97.1777 74.0748 92.9148 71.9374 89.2006C81.832 89.1291 93.1958 97.4013 99.8942 110.557C108.271 127.018 106.172 144.879 95.2061 150.459Z" fill="#DBC765"/>
    <path d="M65.2979 138.809C63.398 136.4 61.6771 133.711 60.1848 130.783C51.8075 114.322 53.9072 96.461 64.8728 90.8805C67.0714 89.7558 69.4601 89.2142 71.9372 89.2005C74.0746 92.9146 75.7864 97.1775 76.905 101.821C80.9488 118.619 75.78 134.482 65.2979 138.809Z" fill="#EEE4B0"/>
    <path d="M144.409 129.537C155.655 122.745 158.297 103.169 149.267 85.4327C139.959 67.1508 124.103 56.5651 111.918 62.7655" stroke="#1E62A1" stroke-width="1.3" stroke-miterlimit="10"/>
    <path d="M102.092 109.44C92.7899 91.1739 75.3767 81.3982 63.1993 87.5994C51.0144 93.7999 48.6775 113.633 57.9793 131.899C67.281 150.165 84.6943 159.941 96.8716 153.74C109.057 147.539 111.393 127.706 102.092 109.44ZM95.2058 150.459C84.2401 156.04 68.5633 147.228 60.1854 130.775C51.8067 114.33 53.907 96.4611 64.8727 90.8806C75.8384 85.3001 91.5228 94.1124 99.8931 110.565C108.271 127.018 106.171 144.879 95.2051 150.467L95.2058 150.459Z" fill="#83ABDE" stroke="#1E62A1" stroke-width="1.3"/>
    <path d="M124.009 120.221C125.477 120.039 126.486 118.428 126.262 116.622C126.039 114.817 124.668 113.5 123.2 113.682C121.732 113.863 120.723 115.475 120.947 117.28C121.17 119.086 122.541 120.402 124.009 120.221Z" fill="#04447F"/>
    <path d="M123.607 116.948C125.763 110.203 125.957 102.961 125.433 95.9513C124.909 88.9412 124.054 81.3118 121.237 74.7147C118.903 69.2553 115.128 63.6844 110.241 60.2031C105.225 56.6258 99.0362 55.6365 93.0148 56.3746C88.6167 56.9123 84.2897 58.3279 80.5893 60.8104C74.4183 64.9578 70.8017 72.1171 68.6281 79.044C67.9856 81.1008 67.4978 83.3019 67.4112 84.4782" stroke="#1E62A1" stroke-width="2.5" stroke-miterlimit="10" stroke-linecap="round"/>
    <path d="M101.85 144.003C100.93 145.598 99.7777 147.057 98.3952 148.281C97.8368 148.779 97.2363 149.319 96.5894 149.702C96.2093 149.926 95.7604 150.152 95.3837 150.423C94.9421 150.733 94.6517 151.226 94.2047 151.513C93.6528 151.858 93.0586 152.086 92.4327 152.241C91.5257 152.463 90.605 152.667 89.6816 152.818C89.1772 152.901 88.6899 153.047 88.2128 153.247C87.5764 153.516 87.1358 153.979 86.4784 153.49C86.0142 153.141 85.799 152.663 85.9057 152.092C86.1058 151.01 87.237 150.023 88.1817 149.561C89.3665 148.983 90.7626 147.904 91.9999 147.5C95.437 146.368 97.9999 143 101.85 144.003Z" fill="#1E62A1"/>
    <path d="M89.1122 183.41L89.0795 183.409C88.6797 183.398 88.4073 183.416 88.0981 183.439C88.0837 183.44 88.0691 183.441 88.0545 183.442C87.7488 183.465 87.404 183.49 86.9002 183.491C86.6641 183.491 86.4838 183.501 86.3465 183.521C86.3305 183.523 86.3154 183.525 86.3013 183.528C86.5389 183.612 86.8874 183.679 87.3166 183.728C88.0935 183.817 88.9846 183.831 89.6481 183.841C89.768 183.843 89.8805 183.845 89.9835 183.847L89.1122 183.41ZM89.1122 183.41L89.1448 183.408M89.1122 183.41L89.1448 183.408M89.1448 183.408C89.7548 183.363 90.4678 183.377 91.2404 183.392C91.6555 183.401 92.0878 183.409 92.5306 183.409C92.9505 183.409 93.3231 183.373 93.6057 183.345M89.1448 183.408L93.6057 183.345M93.6057 183.345C93.6858 183.337 93.7588 183.33 93.8234 183.324M93.6057 183.345L93.8234 183.324M93.8234 183.324C93.938 183.314 94.0202 183.311 94.0787 183.312M93.8234 183.324L94.0787 183.312M94.0787 183.312L94.1002 183.358C94.1027 183.373 94.1027 183.383 94.1022 183.388C94.0978 183.395 94.0797 183.42 94.0249 183.457C93.8574 183.571 93.5305 183.68 93.0377 183.754C92.1311 183.89 90.9879 183.867 90.1374 183.85C90.085 183.849 90.0337 183.848 89.9837 183.847L94.0787 183.312ZM86.0788 183.421C86.0796 183.421 86.0847 183.424 86.0916 183.432C86.0815 183.425 86.078 183.421 86.0788 183.421Z" fill="#1E62A1" stroke="#1E62A1" stroke-width="1.3"/>
    <path d="M78.2542 180.552L78.2029 180.549C77.8274 180.533 77.4254 180.561 76.9664 180.596C76.9306 180.599 76.8945 180.602 76.858 180.604C76.4387 180.637 75.9775 180.673 75.5016 180.674C75.2879 180.674 75.1201 180.691 74.9933 180.72C74.8652 180.748 74.8039 180.783 74.78 180.801C74.7664 180.811 74.7656 180.814 74.7637 180.82C74.7636 180.821 74.7634 180.821 74.7632 180.822C74.7579 180.84 74.7448 180.905 74.7728 181.046C74.8078 181.22 74.9049 181.356 75.1073 181.481C75.3274 181.616 75.6478 181.718 76.0549 181.784C76.6639 181.884 77.3126 181.888 77.8926 181.891C78.1061 181.892 78.3103 181.893 78.4997 181.899L78.2542 180.552ZM78.2542 180.552L78.3052 180.546M78.2542 180.552L78.3052 180.546M78.3052 180.546C78.655 180.505 78.9778 180.447 79.2735 180.393C79.392 180.372 79.5061 180.351 79.616 180.333C80.0117 180.266 80.4221 180.214 80.9605 180.214C81.4643 180.214 81.8108 180.215 82.0788 180.25M78.3052 180.546L82.0788 180.25M82.0788 180.25C82.2073 180.267 82.2944 180.289 82.3548 180.312M82.0788 180.25L82.3548 180.312M82.3548 180.312L82.4463 180.62C82.4861 180.954 82.394 181.141 82.2612 181.279C82.0928 181.453 81.795 181.608 81.3537 181.72C80.4698 181.945 79.3306 181.925 78.5 181.899L82.3548 180.312Z" fill="#1E62A1" stroke="#1E62A1" stroke-width="1.3"/>
    <path d="M87.6864 156.809C87.695 157.103 87.7054 157.479 87.7102 157.918C88.0305 161.989 90.5609 169.187 88.7875 170.779C88.0171 171.47 84.0892 171.916 86.188 167.393C87.6009 164.347 87.7354 160.248 87.7102 157.918C87.6784 157.515 87.6684 157.142 87.6864 156.809Z" fill="#1E62A1" stroke="#1E62A1" stroke-width="1.3"/>
  </symbol>
  <symbol id="search" viewBox="0 0 208 196" preserveAspectRatio="none" fill="none">
    <path d="M71.6923 37.0033V0H8V149H16.3077V10.3955L46.3151 7.40066L46.448 7.52894L46.5865 7.37599L61.496 5.89586L61.6622 6.05867L61.8394 5.86132L70.0308 5.02752V37.0033H61.1692V40.9503H80V37.0033H71.6923ZM28.8025 2.58037L33.7871 7.15891L23.5077 8.18513L28.8025 2.58037ZM22.0788 7.40066L17.2271 1.48013H27.6726L22.0788 7.40066ZM29.9157 1.48013H40.1231L35.2049 6.3103L29.9157 1.48013ZM70.0308 2.10179V3.53752L68.7348 3.66579L70.0308 2.10179ZM67.2948 2.91586L65.8049 1.48013H68.48L67.2948 2.91586ZM63.6172 1.48013L61.5735 3.76447L59.2308 1.48013H63.6172ZM57.0431 1.48013L54.5785 4.23811L51.8757 1.48013H57.0431ZM49.7102 1.48013L46.3428 5.25941L42.3717 1.48013H49.7102ZM16.3077 2.86652L20.8991 8.44662L16.3077 8.90547V2.86652ZM36.8886 6.84808L41.2308 2.5705L44.8862 6.04881L36.8886 6.84808ZM50.8012 2.63463L53.3268 5.20513L48.0431 5.73305L50.8012 2.63463ZM56.0849 4.93377L58.1508 2.62477L60.1114 4.53414L56.0849 4.93377ZM64.7249 2.61983L66.0874 3.94702L63.3182 4.22331L64.7249 2.61983Z" fill="#ECEFF1"/>
    <path d="M53.2805 64.3482H43.0115V59.4281H41.5445V64.3482H31.7646V55H29.8086V157.831H55.2365V57.9521H53.2805V64.3482ZM41.5445 72.2204H31.7646V66.8083H41.5445V72.2204ZM53.2805 72.2204H43.0115V66.8083H53.2805V72.2204Z" fill="#ECEFF1"/>
    <path d="M204 162V137.945H201.863V126.482H198.733V86.6293H194.21V81.4855L184.562 77.1551V71.9737H183.222V86.6293H181.35V126.482H179.482V105.526H174.401V94.7259H172.983V126.482H169.125V114.398H166.582V111.309H160.699V100.768H157.477V93.3107H153.516V82.4494H152.103V93.3107H148.142V100.768H144.919V111.309H139.037V114.398H136.499V126.482H133.487V111.309H127.604V78.6597H125.731V75.0581H113.164V78.6597H110.489V102.315H99.7897V104.628H95.78V106.429V112.829V115.682H88.5623V84.8285H86.1516V78.2695H80.9389V55H79.467V78.2695H75.7262V84.8285H53.7751V82.6704H52.4401V97.3261H50.5672V97.5847H49.4425V112.24H47.5697V116.223H43.6137V105.427H42.1956V131.137H40.621V120.337H39.2029V137.179H38.3374V125.095H35.7995V122.011H29.9169V111.469H26.6944V104.012H22.7335V93.1461H21.3203V104.012H17.3594V111.469H14.1369V122.011H8.25428V125.095H5.71638V136.925H5.25672V137.179H4V162H204Z" fill="#ECEFF1"/>
    <path d="M1 162H75" stroke="#E0E3E6" stroke-width="0.5" stroke-linecap="round"/>
    <path d="M95 162H207" stroke="#E0E3E6" stroke-width="0.5" stroke-linecap="round"/>
    <path d="M80 162H89" stroke="#E0E3E6" stroke-width="0.5" stroke-linecap="round"/>
    <path d="M196.5 166.521H81.5L74.5 176C69.5 180.5 44.9999 194.5 26 195C21.5 194.007 22.9999 190.479 14.4999 181C7.46402 173.154 9.99994 167 9.99992 165" stroke="#95959F" stroke-width="1.3" stroke-miterlimit="10" stroke-linecap="round"/>
    <path d="M160.967 140.101H129.137V146.687H160.967V140.101Z" fill="#83ABDE" stroke="#04447F" stroke-miterlimit="10"/>
    <path d="M101.115 159.793C103.218 159.793 104.923 158.087 104.923 155.984C104.923 153.88 103.218 152.175 101.115 152.175C99.0111 152.175 97.3058 153.88 97.3058 155.984C97.3058 158.087 99.0111 159.793 101.115 159.793Z" fill="#263238"/>
    <path d="M145.513 159.793C147.617 159.793 149.322 158.087 149.322 155.984C149.322 153.88 147.617 152.175 145.513 152.175C143.409 152.175 141.704 153.88 141.704 155.984C141.704 158.087 143.409 159.793 145.513 159.793Z" fill="#263238"/>
    <path d="M189.911 159.793C192.015 159.793 193.72 158.087 193.72 155.984C193.72 153.88 192.015 152.175 189.911 152.175C187.808 152.175 186.103 153.88 186.103 155.984C186.103 158.087 187.808 159.793 189.911 159.793Z" fill="#263238"/>
    <path fill-rule="evenodd" clip-rule="evenodd" d="M100.933 146.687H189.403C194.436 146.687 198.517 150.768 198.517 155.802C198.517 160.836 194.436 164.916 189.403 164.916H100.933C95.899 164.916 91.8182 160.836 91.8182 155.802C91.8182 150.768 95.899 146.687 100.933 146.687ZM100.557 150.086H189.773C192.93 150.086 195.489 152.645 195.489 155.802C195.489 158.958 192.93 161.517 189.773 161.517H100.557C97.4007 161.517 94.8418 158.958 94.8418 155.802C94.8418 152.645 97.4007 150.086 100.557 150.086Z" fill="#95959F"/>
    <path d="M189.403 146.187H100.933V147.187H189.403V146.187ZM199.017 155.802C199.017 150.492 194.713 146.187 189.403 146.187V147.187C194.16 147.187 198.017 151.044 198.017 155.802H199.017ZM189.403 165.416C194.713 165.416 199.017 161.112 199.017 155.802H198.017C198.017 160.56 194.16 164.416 189.403 164.416V165.416ZM100.933 165.416H189.403V164.416H100.933V165.416ZM91.3182 155.802C91.3182 161.112 95.6229 165.416 100.933 165.416V164.416C96.1752 164.416 92.3182 160.56 92.3182 155.802H91.3182ZM100.933 146.187C95.6229 146.187 91.3182 150.492 91.3182 155.802H92.3182C92.3182 151.044 96.1752 147.187 100.933 147.187V146.187ZM189.773 149.586H100.557V150.586H189.773V149.586ZM195.989 155.802C195.989 152.369 193.206 149.586 189.773 149.586V150.586C192.653 150.586 194.989 152.921 194.989 155.802H195.989ZM189.773 162.017C193.206 162.017 195.989 159.234 195.989 155.802H194.989C194.989 158.682 192.653 161.017 189.773 161.017V162.017ZM100.557 162.017H189.773V161.017H100.557V162.017ZM94.3418 155.802C94.3418 159.234 97.1245 162.017 100.557 162.017V161.017C97.6768 161.017 95.3418 158.682 95.3418 155.802H94.3418ZM100.557 149.586C97.1245 149.586 94.3418 152.369 94.3418 155.802H95.3418C95.3418 152.921 97.6768 150.586 100.557 150.586V149.586Z" fill="#263238"/>
    <path d="M153.284 121.026L198.286 113.759V137.906H154.523L153.284 121.026Z" fill="#F4F7F9" stroke="#1E62A1" stroke-miterlimit="10"/>
    <path d="M175.403 126.933H197.188V133.516H175.403C173.494 133.516 171.943 132.04 171.943 130.223C171.943 128.406 173.494 126.93 175.403 126.93V126.933Z" fill="#83ABDE"/>
    <path d="M26.1108 150.145L31.7037 71.8781L39.561 61.3743L50.6975 78.2476L33.6429 151.221L26.1108 150.145Z" fill="#E5D050" stroke="#1E62A1" stroke-miterlimit="10" stroke-linejoin="round"/>
    <path d="M112.089 49L146.322 97.3507H133.113L98.2445 69.6565L50.6973 78.2474L39.5608 61.3742L112.089 49Z" fill="#E5D050" stroke="#1E62A1" stroke-miterlimit="10" stroke-linejoin="round"/>
    <path d="M46.4446 77.83C50.8402 77.83 54.4036 74.2667 54.4036 69.8711C54.4036 65.4755 50.8402 61.9121 46.4446 61.9121C42.0491 61.9121 38.4857 65.4755 38.4857 69.8711C38.4857 74.2667 42.0491 77.83 46.4446 77.83Z" fill="white" stroke="#04447F" stroke-miterlimit="10"/>
    <path d="M105.117 67.9244C108.707 67.9244 111.618 65.0142 111.618 61.4242C111.618 57.8343 108.707 54.924 105.117 54.924C101.527 54.924 98.6172 57.8343 98.6172 61.4242C98.6172 65.0142 101.527 67.9244 105.117 67.9244Z" fill="white" stroke="#04447F" stroke-miterlimit="10"/>
    <path d="M114.868 137.926H160.766L158.254 99.1932C158.186 98.1568 157.328 97.3506 156.288 97.3506H133.341C128.802 97.3506 124.704 100.068 122.938 104.248L115.742 121.279C115.162 122.648 114.868 124.119 114.868 125.604V137.922V137.926Z" fill="#F4F7F9" stroke="#1E62A1" stroke-miterlimit="10"/>
    <path d="M153.107 122.196L152.003 101.701H135.97C132.024 101.701 128.463 104.064 126.927 107.698L120.675 122.503C120.171 123.693 119.911 124.973 119.911 126.265V133.576H142.325C142.325 127.489 147.098 122.516 153.107 122.196Z" fill="#DFEBFB" stroke="#1E62A1" stroke-miterlimit="10"/>
    <path d="M64.9398 171.231L61.4091 162.667C61.3807 162.598 61.3614 162.526 61.3489 162.443L60.7942 158.405C60.7747 158.252 60.7243 158.125 60.6495 158.033L57.7654 154.398C57.7453 154.371 57.7243 154.349 57.7024 154.331L53.2437 150.659C53.0175 150.472 52.7452 150.424 52.4615 150.513L47.5995 152.107C47.5126 152.134 47.4317 152.194 47.3537 152.281L43.8911 156.122C43.7518 156.277 43.5844 156.341 43.4396 156.297L40.6977 155.482C40.6412 155.465 40.5811 155.466 40.5184 155.48L35.866 156.665C35.8164 156.677 35.7691 156.698 35.7242 156.729L30.7563 160.058C30.6763 160.114 30.6001 160.192 30.5366 160.291L28.2945 163.776C27.9595 164.295 28.0516 165.082 28.4572 165.167L64.2917 172.654C64.7711 172.754 65.1934 171.818 64.9357 171.23L64.9398 171.231Z" fill="#D9C979"/>
    <path d="M25.8999 150.457L17.2202 163.102C15.2882 165.918 15.0596 169.578 16.6256 172.604L21.1793 181.383C22.7968 184.501 26.0449 186.416 29.545 186.309L35.0247 186.143C43.3705 185.89 51.4256 182.968 58.0305 177.81L64.9852 172.379C65.2077 172.203 65.1342 171.847 64.8573 171.779L56.05 169.665C48.9242 167.952 37.2475 165.676 36.3443 163.699C35.0052 160.773 33.8598 155.889 33.1992 152.736L25.8956 150.456L25.8999 150.457Z" fill="#BEC7CD" stroke="#04447F" stroke-miterlimit="10" stroke-linejoin="round"/>
    <path d="M28.8398 154.257C30.8472 154.82 32.9305 153.648 33.4929 151.641C34.0553 149.634 32.8839 147.55 30.8765 146.988C28.869 146.425 26.7858 147.597 26.2234 149.604C25.6609 151.612 26.8324 153.695 28.8398 154.257Z" fill="white" stroke="#04447F" stroke-miterlimit="10"/>
    <path d="M198.286 137.906H114.868V142.296H198.286V137.906Z" fill="#04447F" stroke="#1E62A1" stroke-miterlimit="10"/>
  </symbol>
</svg>
