<svg width="1156" height="72" viewBox="0 0 1156 72" fill="none" xmlns="http://www.w3.org/2000/svg">
<g clip-path="url(#clip0_228_59049)">
<path d="M0 0H1156V64C1156 68.4183 1152.42 72 1148 72H7.99998C3.5817 72 0 68.4183 0 64V0Z" fill="#1E62A1" fill-opacity="0.04"/>
<path opacity="0.25" d="M1185.84 -191.773L1430.62 -106.364L1061.87 107.814L991.172 -73.5852L1185.84 -191.773Z" stroke="#5A8FD3" stroke-width="3"/>
<path opacity="0.25" d="M567.831 -274.056L1027.67 -113.608L336.396 287.899L203.569 -52.9059L567.831 -274.056Z" stroke="#5A8FD3" stroke-width="3"/>
<path opacity="0.25" d="M85.761 -247.204L386.695 -142.201L-66.3959 120.964L-153.317 -102.055L85.761 -247.204Z" stroke="#5A8FD3" stroke-width="3.22802"/>
<path opacity="0.45" d="M1158.96 186.918L1612.09 -76.2719L1309.94 -181.699L1071.67 -37.041L1158.96 186.918Z" fill="#1E62A1" fill-opacity="0.12"/>
<path opacity="0.45" d="M2.05213 0.0908662L455.186 -263.099L153.035 -368.527L-85.2353 -223.869L2.05213 0.0908662Z" fill="#1E62A1" fill-opacity="0.08"/>
<path opacity="0.45" d="M219.055 723.718L1023.94 256.221L487.241 68.9538L64.0092 325.906L219.055 723.718Z" fill="#1E62A1" fill-opacity="0.08"/>
<path opacity="0.45" d="M479.408 272.021L1284.3 -195.476L747.594 -382.744L324.362 -125.792L479.408 272.021Z" fill="#1E62A1" fill-opacity="0.08"/>
</g>
<defs>
<clipPath id="clip0_228_59049">
<path d="M0 0H1156V64C1156 68.4183 1152.42 72 1148 72H7.99998C3.5817 72 0 68.4183 0 64V0Z" fill="white"/>
</clipPath>
</defs>
</svg>
