<svg width="116" height="90" viewBox="0 0 116 90" fill="none" xmlns="http://www.w3.org/2000/svg">
<g clip-path="url(#clip0_585_66338)">
<g opacity="0.1">
<path d="M25.5541 33.2737H2.74854V88.8446H25.5541V33.2737Z" stroke="#003972" stroke-width="1.12849" stroke-linecap="round" stroke-linejoin="round"/>
<path d="M7.7135 88.4558V33.2737" stroke="#003972" stroke-width="1.12849" stroke-linecap="round" stroke-linejoin="round"/>
<path d="M20.8734 88.4558V33.2737" stroke="#003972" stroke-width="1.12849" stroke-linecap="round" stroke-linejoin="round"/>
<path d="M14.2935 88.4558V33.2737" stroke="#003972" stroke-width="1.12849" stroke-linecap="round" stroke-linejoin="round"/>
<path d="M2.77844 39.106H25.6588" stroke="#003972" stroke-width="1.12849" stroke-linecap="round" stroke-linejoin="round"/>
<path d="M2.77844 41.9473H25.6588" stroke="#003972" stroke-width="1.12849" stroke-linecap="round" stroke-linejoin="round"/>
<path d="M2.77844 48.976H25.6588" stroke="#003972" stroke-width="1.12849" stroke-linecap="round" stroke-linejoin="round"/>
<path d="M2.77844 52.1164H25.6588" stroke="#003972" stroke-width="1.12849" stroke-linecap="round" stroke-linejoin="round"/>
<path d="M2.77844 59.4441H25.6588" stroke="#003972" stroke-width="1.12849" stroke-linecap="round" stroke-linejoin="round"/>
<path d="M2.77844 62.5845H25.6588" stroke="#003972" stroke-width="1.12849" stroke-linecap="round" stroke-linejoin="round"/>
<path d="M2.77844 70.2113H25.6588" stroke="#003972" stroke-width="1.12849" stroke-linecap="round" stroke-linejoin="round"/>
<path d="M2.77844 73.2022H25.6588" stroke="#003972" stroke-width="1.12849" stroke-linecap="round" stroke-linejoin="round"/>
<path d="M2.77844 79.6327H25.6588" stroke="#003972" stroke-width="1.12849" stroke-linecap="round" stroke-linejoin="round"/>
<path d="M2.77844 82.474H25.6588" stroke="#003972" stroke-width="1.12849" stroke-linecap="round" stroke-linejoin="round"/>
<path d="M20.9482 28.3986H7.83313V33.3934H20.9482V28.3986Z" stroke="#003972" stroke-width="1.12849" stroke-linecap="round" stroke-linejoin="round"/>
<path d="M17.8974 23.4038H10.8838V28.3986H17.8974V23.4038Z" stroke="#003972" stroke-width="1.12849" stroke-linecap="round" stroke-linejoin="round"/>
<path d="M98.3825 88.71H89.1406V33.0644H113.516V88.71H106.338" stroke="#003972" stroke-width="1.12849" stroke-linecap="round" stroke-linejoin="round"/>
<path d="M95.2421 38.1638H92.296V43.3381H95.2421V38.1638Z" stroke="#003972" stroke-width="1.12849" stroke-linecap="round" stroke-linejoin="round"/>
<path d="M100.282 38.1638H97.3357V43.3381H100.282V38.1638Z" stroke="#003972" stroke-width="1.12849" stroke-linecap="round" stroke-linejoin="round"/>
<path d="M105.321 38.1638H102.375V43.3381H105.321V38.1638Z" stroke="#003972" stroke-width="1.12849" stroke-linecap="round" stroke-linejoin="round"/>
<path d="M110.376 38.1638H107.43V43.3381H110.376V38.1638Z" stroke="#003972" stroke-width="1.12849" stroke-linecap="round" stroke-linejoin="round"/>
<path d="M95.2421 45.9402H92.296V51.1144H95.2421V45.9402Z" stroke="#003972" stroke-width="1.12849" stroke-linecap="round" stroke-linejoin="round"/>
<path d="M100.282 45.9402H97.3357V51.1144H100.282V45.9402Z" stroke="#003972" stroke-width="1.12849" stroke-linecap="round" stroke-linejoin="round"/>
<path d="M105.321 45.9402H102.375V51.1144H105.321V45.9402Z" stroke="#003972" stroke-width="1.12849" stroke-linecap="round" stroke-linejoin="round"/>
<path d="M110.376 45.9402H107.43V51.1144H110.376V45.9402Z" stroke="#003972" stroke-width="1.12849" stroke-linecap="round" stroke-linejoin="round"/>
<path d="M95.2421 60.7451H92.296V65.1716H95.2421V60.7451Z" stroke="#003972" stroke-width="1.12849" stroke-linecap="round" stroke-linejoin="round"/>
<path d="M100.282 60.7451H97.3357V65.1716H100.282V60.7451Z" stroke="#003972" stroke-width="1.12849" stroke-linecap="round" stroke-linejoin="round"/>
<path d="M105.321 60.7451H102.375V65.1716H105.321V60.7451Z" stroke="#003972" stroke-width="1.12849" stroke-linecap="round" stroke-linejoin="round"/>
<path d="M110.376 60.7451H107.43V65.1716H110.376V60.7451Z" stroke="#003972" stroke-width="1.12849" stroke-linecap="round" stroke-linejoin="round"/>
<path d="M95.2421 76.5072H92.296V80.9337H95.2421V76.5072Z" stroke="#003972" stroke-width="1.12849" stroke-linecap="round" stroke-linejoin="round"/>
<path d="M100.282 76.5072H97.3357V80.9337H100.282V76.5072Z" stroke="#003972" stroke-width="1.12849" stroke-linecap="round" stroke-linejoin="round"/>
<path d="M105.321 76.5072H102.375V80.9337H105.321V76.5072Z" stroke="#003972" stroke-width="1.12849" stroke-linecap="round" stroke-linejoin="round"/>
<path d="M110.376 76.5072H107.43V80.9337H110.376V76.5072Z" stroke="#003972" stroke-width="1.12849" stroke-linecap="round" stroke-linejoin="round"/>
<path d="M92.2063 55.5559H110.301" stroke="#003972" stroke-width="1.12849" stroke-linecap="round" stroke-linejoin="round"/>
<path d="M92.2063 57.9487H110.301" stroke="#003972" stroke-width="1.12849" stroke-linecap="round" stroke-linejoin="round"/>
<path d="M92.2063 68.1177H110.301" stroke="#003972" stroke-width="1.12849" stroke-linecap="round" stroke-linejoin="round"/>
<path d="M92.2063 70.66H110.301" stroke="#003972" stroke-width="1.12849" stroke-linecap="round" stroke-linejoin="round"/>
<path d="M92.2063 73.2022H110.301" stroke="#003972" stroke-width="1.12849" stroke-linecap="round" stroke-linejoin="round"/>
<path d="M110.301 27.7406H93.7616V33.0644H110.301V27.7406Z" stroke="#003972" stroke-width="1.12849" stroke-linecap="round" stroke-linejoin="round"/>
<path d="M106.727 22.4168H97.3357V27.7406H106.727V22.4168Z" stroke="#003972" stroke-width="1.12849" stroke-linecap="round" stroke-linejoin="round"/>
<path d="M101.777 22.357V13.9825" stroke="#003972" stroke-width="1.12849" stroke-linecap="round" stroke-linejoin="round"/>
<path d="M76.9078 88.7549H64.3311V34.7841L70.6269 27.92L76.9078 34.7841V88.7549Z" stroke="#003972" stroke-width="1.12849" stroke-linecap="round" stroke-linejoin="round"/>
<path d="M87.4507 88.7549H76.9078V45.2523C76.9078 39.1807 80.9007 38.1937 87.4507 35.0383V88.7549Z" stroke="#003972" stroke-width="1.12849" stroke-linecap="round" stroke-linejoin="round"/>
<path d="M80.6914 76.7913V79.4831" stroke="#003972" stroke-width="1.12849" stroke-linejoin="round"/>
<path d="M83.5328 76.7913V79.4831" stroke="#003972" stroke-width="1.12849" stroke-linejoin="round"/>
<path d="M80.6914 71.1086V73.8004" stroke="#003972" stroke-width="1.12849" stroke-linejoin="round"/>
<path d="M83.5328 71.1086V73.8004" stroke="#003972" stroke-width="1.12849" stroke-linejoin="round"/>
<path d="M80.6914 65.4259V68.1177" stroke="#003972" stroke-width="1.12849" stroke-linejoin="round"/>
<path d="M83.5328 65.4258V68.1176" stroke="#003972" stroke-width="1.12849" stroke-linejoin="round"/>
<path d="M80.6914 59.7431V62.4349" stroke="#003972" stroke-width="1.12849" stroke-linejoin="round"/>
<path d="M83.5328 59.7431V62.4349" stroke="#003972" stroke-width="1.12849" stroke-linejoin="round"/>
<path d="M80.6914 54.0604V56.7522" stroke="#003972" stroke-width="1.12849" stroke-linejoin="round"/>
<path d="M83.5328 54.0604V56.7522" stroke="#003972" stroke-width="1.12849" stroke-linejoin="round"/>
<path d="M80.6914 48.3777V51.0695" stroke="#003972" stroke-width="1.12849" stroke-linejoin="round"/>
<path d="M83.5328 48.3777V51.0695" stroke="#003972" stroke-width="1.12849" stroke-linejoin="round"/>
<path d="M80.6914 42.6951V45.3869" stroke="#003972" stroke-width="1.12849" stroke-linejoin="round"/>
<path d="M83.5328 42.695V45.3868" stroke="#003972" stroke-width="1.12849" stroke-linejoin="round"/>
<path d="M53.7434 88.7549H64.2863V45.2523C64.2863 39.1807 60.2935 38.1937 53.7434 35.0383V88.7549Z" stroke="#003972" stroke-width="1.12849" stroke-linecap="round" stroke-linejoin="round"/>
<path d="M60.0542 76.7913V79.4831" stroke="#003972" stroke-width="1.12849" stroke-linejoin="round"/>
<path d="M57.3623 76.7913V79.4831" stroke="#003972" stroke-width="1.12849" stroke-linejoin="round"/>
<path d="M60.0542 71.1086V73.8004" stroke="#003972" stroke-width="1.12849" stroke-linejoin="round"/>
<path d="M57.3623 71.1086V73.8004" stroke="#003972" stroke-width="1.12849" stroke-linejoin="round"/>
<path d="M60.0542 65.4258V68.1176" stroke="#003972" stroke-width="1.12849" stroke-linejoin="round"/>
<path d="M57.3623 65.4259V68.1177" stroke="#003972" stroke-width="1.12849" stroke-linejoin="round"/>
<path d="M60.0542 59.7431V62.4349" stroke="#003972" stroke-width="1.12849" stroke-linejoin="round"/>
<path d="M57.3623 59.7431V62.4349" stroke="#003972" stroke-width="1.12849" stroke-linejoin="round"/>
<path d="M60.0542 54.0604V56.7522" stroke="#003972" stroke-width="1.12849" stroke-linejoin="round"/>
<path d="M57.3623 54.0604V56.7522" stroke="#003972" stroke-width="1.12849" stroke-linejoin="round"/>
<path d="M60.0542 48.3777V51.0695" stroke="#003972" stroke-width="1.12849" stroke-linejoin="round"/>
<path d="M57.3623 48.3777V51.0695" stroke="#003972" stroke-width="1.12849" stroke-linejoin="round"/>
<path d="M60.0542 42.695V45.3868" stroke="#003972" stroke-width="1.12849" stroke-linejoin="round"/>
<path d="M57.3623 42.6951V45.3869" stroke="#003972" stroke-width="1.12849" stroke-linejoin="round"/>
<path d="M68.1295 36.7133V75.4454" stroke="#003972" stroke-width="1.12849" stroke-linecap="round" stroke-linejoin="round"/>
<path d="M73.5132 36.7133V75.4454" stroke="#003972" stroke-width="1.12849" stroke-linecap="round" stroke-linejoin="round"/>
<path d="M66.4248 74.3986H74.7245" stroke="#003972" stroke-width="1.12849" stroke-linecap="round" stroke-linejoin="round"/>
<path d="M66.4248 68.7159H74.7245" stroke="#003972" stroke-width="1.12849" stroke-linecap="round" stroke-linejoin="round"/>
<path d="M66.4248 63.0332H74.7245" stroke="#003972" stroke-width="1.12849" stroke-linecap="round" stroke-linejoin="round"/>
<path d="M66.4248 57.3505H74.7245" stroke="#003972" stroke-width="1.12849" stroke-linecap="round" stroke-linejoin="round"/>
<path d="M66.4248 51.6678H74.7245" stroke="#003972" stroke-width="1.12849" stroke-linecap="round" stroke-linejoin="round"/>
<path d="M66.4248 45.9851H74.7245" stroke="#003972" stroke-width="1.12849" stroke-linecap="round" stroke-linejoin="round"/>
<path d="M66.4248 40.3023H74.7245" stroke="#003972" stroke-width="1.12849" stroke-linecap="round" stroke-linejoin="round"/>
<path d="M51.3656 27.92H29.3676V88.71H51.3656V27.92Z" stroke="#003972" stroke-width="1.12849" stroke-linecap="round" stroke-linejoin="round"/>
<path d="M34.8857 32.4363H32.2986V75.5949H34.8857V32.4363Z" stroke="#003972" stroke-width="1.12849" stroke-linecap="round" stroke-linejoin="round"/>
<path d="M39.4618 32.4363H36.8746V75.5949H39.4618V32.4363Z" stroke="#003972" stroke-width="1.12849" stroke-linecap="round" stroke-linejoin="round"/>
<path d="M44.0528 32.4363H41.4657V75.5949H44.0528V32.4363Z" stroke="#003972" stroke-width="1.12849" stroke-linecap="round" stroke-linejoin="round"/>
<path d="M48.6289 32.4363H46.0417V75.5949H48.6289V32.4363Z" stroke="#003972" stroke-width="1.12849" stroke-linecap="round" stroke-linejoin="round"/>
<path d="M48.6289 21.7588H41.4657V27.92H48.6289V21.7588Z" stroke="#003972" stroke-width="1.12849" stroke-linecap="round" stroke-linejoin="round"/>
<path d="M44.8005 21.7588V16.3752" stroke="#003972" stroke-width="1.12849" stroke-linecap="round" stroke-linejoin="round"/>
<path d="M38.8039 23.8973H32.0145V27.9201H38.8039V23.8973Z" stroke="#003972" stroke-width="1.12849" stroke-linecap="round" stroke-linejoin="round"/>
</g>
<g opacity="0.15">
<path d="M112.013 8.52404C112.028 8.41936 112.028 8.29972 112.028 8.19504C112.028 5.98178 110.233 4.20219 108.035 4.20219C107.182 4.20219 106.39 4.47137 105.747 4.92001C105.268 3.24511 103.728 2.03379 101.903 2.03379C101.589 2.03379 101.29 2.0637 100.991 2.13847C99.9892 1.01689 98.5236 0.299072 96.8936 0.299072C94.0971 0.299072 91.7791 2.3927 91.4352 5.09946C91.3754 5.09946 91.3156 5.08451 91.2408 5.08451C89.521 5.08451 88.1302 6.47528 88.1302 8.19504C88.1302 8.29972 88.1302 8.41936 88.1452 8.52404H112.013V8.52404Z" stroke="#003972" stroke-width="1.05072" stroke-linecap="round" stroke-linejoin="round"/>
<path d="M19.6687 10.1092C18.9958 9.15216 17.8742 8.50911 16.603 8.50911C16.304 8.50911 16.0198 8.53902 15.7506 8.61379C14.8085 7.56698 13.4327 6.89403 11.9073 6.89403C9.2903 6.89403 7.1219 8.85307 6.80786 11.3804C6.74804 11.3804 6.68822 11.3654 6.62841 11.3654C5.02828 11.3654 3.71228 12.6665 3.71228 14.2815C3.71228 14.3862 3.71228 14.4909 3.72723 14.5956H18.9659" stroke="#003972" stroke-width="1.05072" stroke-linecap="round" stroke-linejoin="round"/>
<path d="M31.752 15.8219H44.6278" stroke="#003972" stroke-width="1.05072" stroke-linecap="round" stroke-linejoin="round"/>
<path d="M40.605 19.1268H43.7305" stroke="#003972" stroke-width="1.05072" stroke-linecap="round" stroke-linejoin="round"/>
<path d="M37.0309 17.2874H42.8033" stroke="#003972" stroke-width="1.05072" stroke-linecap="round" stroke-linejoin="round"/>
<path d="M29.5237 14.5956C29.6583 14.2815 29.733 13.9376 29.733 13.5637C29.733 12.1729 28.6264 11.0513 27.2506 11.0513C26.9066 11.0513 26.5776 11.1261 26.2785 11.2458C25.7252 9.76526 24.3046 8.70349 22.6446 8.70349C20.6557 8.70349 19.0256 10.1989 18.8013 12.1131C18.6368 12.0832 18.4723 12.0533 18.3078 12.0533C17.0516 12.0533 16.0497 13.0403 16.0497 14.2516C16.0497 14.3563 16.0646 14.4759 16.0796 14.5806H29.5237V14.5956V14.5956Z" stroke="#003972" stroke-width="1.05072" stroke-linecap="round" stroke-linejoin="round"/>
</g>
<path d="M42.7793 47.6596H36.4385C35.5706 47.6571 34.869 46.9516 34.8715 46.0837V39.7071C34.869 38.8392 35.5706 38.1336 36.4385 38.1312H42.7793C43.6472 38.1336 44.3488 38.8392 44.3463 39.7071V46.0837C44.3488 46.9516 43.6472 47.6571 42.7793 47.6596Z" fill="white"/>
<path fill-rule="evenodd" clip-rule="evenodd" d="M42.7793 47.6596H36.4385C35.5706 47.6571 34.869 46.9516 34.8715 46.0837V39.7071C34.869 38.8392 35.5706 38.1336 36.4385 38.1312H42.7793C43.6472 38.1336 44.3488 38.8392 44.3463 39.7071V46.0837C44.3488 46.9516 43.6472 47.6571 42.7793 47.6596Z" stroke="#CDCDCD" stroke-width="0.597535" stroke-linecap="round" stroke-linejoin="round"/>
<path d="M41.5293 42.2438H40.2836V40.9981C40.2836 40.749 40.0898 40.5275 39.813 40.5275C39.5638 40.5275 39.3424 40.7213 39.3424 40.9981V42.2438H38.0967C37.8476 42.2438 37.6261 42.4376 37.6261 42.7144C37.6261 42.9912 37.8199 43.185 38.0967 43.185H39.3424V44.4307C39.3424 44.6798 39.5362 44.9013 39.813 44.9013C40.0621 44.9013 40.2836 44.7075 40.2836 44.4307V43.185H41.5293C41.7784 43.185 41.9998 42.9912 41.9998 42.7144C41.9998 42.4376 41.7784 42.2438 41.5293 42.2438Z" fill="#D6D6D6"/>
<ellipse cx="84.8226" cy="22.7888" rx="2.73045" ry="2.73045" fill="#E5D050"/>
<circle cx="13.831" cy="56.3992" r="2.08799" fill="#CDBB52"/>
<ellipse cx="108.112" cy="72.5783" rx="4.17598" ry="3.93033" fill="#E5D050"/>
<g opacity="0.1" clip-path="url(#clip1_585_66338)">
<path d="M26.6882 88.8649H0.385132" stroke="#003972" stroke-width="1.85364" stroke-linecap="round" stroke-linejoin="round"/>
<path d="M90.111 88.8649H28.7328" stroke="#003972" stroke-width="1.85364" stroke-linecap="round" stroke-linejoin="round"/>
<path d="M94.6487 88.8649H92.8416" stroke="#003972" stroke-width="1.85364" stroke-linecap="round" stroke-linejoin="round"/>
<path d="M114.33 88.8649H96.9044" stroke="#003972" stroke-width="1.85364" stroke-linecap="round" stroke-linejoin="round"/>
</g>
<path d="M86.7394 60.296H51.7467C50.9425 60.296 50.2905 60.9167 50.2905 61.6824V73.728C50.2905 74.2476 50.9503 74.5078 51.3362 74.1404L54.8099 70.8332H86.7394C87.5436 70.8332 88.1956 70.2125 88.1956 69.4468V61.6824C88.1956 60.9167 87.5436 60.296 86.7394 60.296Z" fill="white"/>
<mask id="mask0_585_66338" style="mask-type:luminance" maskUnits="userSpaceOnUse" x="50" y="60" width="39" height="15">
<path fill-rule="evenodd" clip-rule="evenodd" d="M86.7394 60.296H51.7467C50.9425 60.296 50.2905 60.9167 50.2905 61.6824V73.728C50.2905 74.2476 50.9503 74.5078 51.3362 74.1404L54.8099 70.8332H86.7394C87.5436 70.8332 88.1956 70.2125 88.1956 69.4468V61.6824C88.1956 60.9167 87.5436 60.296 86.7394 60.296Z" fill="white"/>
</mask>
<g mask="url(#mask0_585_66338)">
<rect x="56.3687" y="63.1837" width="27.7767" height="1.34752" rx="0.673762" fill="#D6D6D6"/>
<rect x="56.3687" y="66.4994" width="19.3683" height="1.34753" rx="0.673764" fill="#D6D6D6"/>
</g>
<path fill-rule="evenodd" clip-rule="evenodd" d="M86.7394 60.296H51.7467C50.9425 60.296 50.2905 60.9167 50.2905 61.6824V73.728C50.2905 74.2476 50.9503 74.5078 51.3362 74.1404L54.8099 70.8332H86.7394C87.5436 70.8332 88.1956 70.2125 88.1956 69.4468V61.6824C88.1956 60.9167 87.5436 60.296 86.7394 60.296Z" stroke="#D3D3D3" stroke-width="0.655286" stroke-linecap="round" stroke-linejoin="round"/>
<path d="M39.5875 64.9981C39.8646 66.884 39.5763 68.8099 38.7588 70.5319C37.9414 72.254 36.6315 73.6949 34.9951 74.6725C33.3586 75.6501 31.4689 76.1204 29.5651 76.0239C27.6613 75.9273 25.8289 75.2684 24.2997 74.1304C22.7704 72.9923 21.6131 71.4263 20.9739 69.6304C20.3348 67.8345 20.2427 65.8894 20.7091 64.0411C21.1756 62.1928 22.1797 60.5244 23.5945 59.2469C25.0093 57.9694 26.7712 57.1401 28.6574 56.8641H28.6759C29.9267 56.6809 31.2014 56.7459 32.427 57.0554C33.6527 57.3649 34.8054 57.9127 35.8193 58.6677C36.8333 59.4227 37.6886 60.37 38.3364 61.4555C38.9842 62.541 39.4118 63.7436 39.5949 64.9944L39.5875 64.9981Z" fill="#0CBBE2"/>
<path d="M37.3184 65.3265C37.5307 66.7633 37.3122 68.2308 36.6904 69.5435C36.0687 70.8561 35.0716 71.9549 33.8254 72.7008C32.5792 73.4468 31.1398 73.8065 29.6891 73.7344C28.2385 73.6623 26.8418 73.1616 25.6757 72.2957C24.5096 71.4299 23.6265 70.2376 23.1379 68.8698C22.6494 67.502 22.5775 66.0201 22.9312 64.6114C23.2849 63.2027 24.0484 61.9305 25.1252 60.9557C26.2019 59.981 27.5435 59.3474 28.9804 59.1351H28.997C30.9215 58.8532 32.8791 59.347 34.4395 60.508C36 61.6691 37.0355 63.4022 37.3184 65.3265Z" fill="#FCFCFC"/>
<path d="M37.2831 65.1001C37.2386 65.1001 37.1625 64.794 36.964 64.2541C36.6875 63.4966 36.2957 62.7862 35.8025 62.1482C35.4617 61.7137 35.0747 61.3174 34.6485 60.9663C34.1582 60.5687 33.6188 60.2357 33.0436 59.9756C32.7334 59.8345 32.4135 59.716 32.0862 59.6212C31.7461 59.5206 31.3987 59.4468 31.0472 59.4004C30.6833 59.3506 30.316 59.3295 29.9488 59.3373C29.5707 59.3462 29.1937 59.3822 28.8207 59.4449C28.4491 59.515 28.0827 59.6105 27.7242 59.7307C27.3764 59.8511 27.0383 59.9981 26.713 60.1704C26.3993 60.3326 26.0984 60.5187 25.8131 60.727C25.5383 60.928 25.2791 61.1494 25.0376 61.3894C24.5869 61.8319 24.1953 62.3308 23.8724 62.8737C23.5917 63.3486 23.3646 63.8533 23.1952 64.3784C22.9506 65.147 22.8255 65.9486 22.8241 66.7551C22.8241 67.3303 22.8612 67.6513 22.8241 67.6587C22.787 67.6661 22.6813 67.3563 22.6126 66.7663C22.5254 65.9279 22.594 65.0806 22.8148 64.2671C23.1438 63.0443 23.7829 61.9272 24.6702 61.0239C24.9247 60.7608 25.1995 60.5182 25.4922 60.2984C26.1105 59.8263 26.7992 59.4544 27.5331 59.1963C27.919 59.0625 28.3148 58.9589 28.7168 58.8865C29.1191 58.8179 29.5259 58.7788 29.934 58.7696C30.3305 58.7658 30.7269 58.7919 31.1195 58.8475C31.4966 58.9027 31.8688 58.9871 32.2328 59.0998C32.5829 59.2058 32.9241 59.3392 33.2532 59.4987C33.8628 59.7925 34.43 60.167 34.9398 60.612C35.3814 60.9962 35.7751 61.4323 36.1124 61.9107C36.6013 62.5977 36.958 63.3697 37.1644 64.1873C37.311 64.7662 37.3147 65.0946 37.2831 65.1001Z" fill="#0CBBE2"/>
<path d="M31.5017 70.5939L31.704 71.8574L30.5777 72.043L30.3811 70.8147C29.253 70.926 28.1249 70.7479 27.4273 70.362L27.8281 68.887C28.5478 69.2333 29.3447 69.388 30.1417 69.336L29.8393 67.4509C28.5405 67.3488 27.0748 67.154 26.8169 65.5417C26.6313 64.3468 27.329 63.1817 29.0786 62.6937L28.8782 61.4413L30.0063 61.2558L30.203 62.484C31.0165 62.399 31.8385 62.5077 32.602 62.8013L32.2606 64.2856C31.6807 64.0613 31.0619 63.9553 30.4404 63.9739L30.7484 65.8924C32.0472 65.9851 33.4888 66.1818 33.743 67.7719C33.9341 68.9482 33.2384 70.1004 31.5017 70.5939ZM29.5851 65.794L29.3272 64.1928C28.752 64.4229 28.5665 64.7884 28.6259 65.1614C28.6853 65.5343 29.0545 65.7161 29.5851 65.794ZM31.96 68.206C31.8951 67.8108 31.5351 67.6494 31.0323 67.5567L31.2809 69.1133C31.8116 68.8944 32.0101 68.5567 31.9526 68.2023L31.96 68.206Z" fill="#0CBBE2"/>
<path d="M95.8436 47.2485C96.0099 48.3801 95.8369 49.5356 95.3464 50.5689C94.856 51.6021 94.0701 52.4667 93.0882 53.0532C92.1063 53.6397 90.9725 53.9219 89.8302 53.864C88.6879 53.8061 87.5885 53.4107 86.671 52.7279C85.7534 52.0451 85.059 51.1055 84.6755 50.0279C84.292 48.9504 84.2367 47.7833 84.5166 46.6744C84.7965 45.5654 85.399 44.5643 86.2479 43.7978C87.0967 43.0313 88.1539 42.5338 89.2856 42.3681H89.2967C90.0472 42.2582 90.812 42.2972 91.5474 42.4829C92.2828 42.6686 92.9744 42.9973 93.5827 43.4503C94.1911 43.9033 94.7043 44.4717 95.093 45.123C95.4816 45.7743 95.7382 46.4958 95.8481 47.2463L95.8436 47.2485Z" fill="#0CBBE2"/>
<path d="M94.4822 47.4456C94.6095 48.3077 94.4784 49.1882 94.1054 49.9758C93.7323 50.7633 93.1341 51.4226 92.3864 51.8702C91.6386 52.3178 90.775 52.5336 89.9046 52.4903C89.0342 52.447 88.1962 52.1467 87.4965 51.6271C86.7969 51.1076 86.267 50.3923 85.9739 49.5716C85.6808 48.7509 85.6376 47.8617 85.8498 47.0165C86.0621 46.1713 86.5202 45.408 87.1662 44.8231C87.8123 44.2383 88.6172 43.8581 89.4793 43.7307H89.4893C90.644 43.5616 91.8186 43.8579 92.7548 44.5545C93.6911 45.2511 94.3124 46.291 94.4822 47.4456Z" fill="#FCFCFC"/>
<path d="M94.461 47.3098C94.4343 47.3098 94.3887 47.1261 94.2696 46.8021C94.1037 46.3476 93.8686 45.9214 93.5727 45.5386C93.3682 45.2779 93.136 45.0401 92.8803 44.8295C92.5861 44.5909 92.2624 44.3911 91.9173 44.235C91.7312 44.1504 91.5392 44.0793 91.3429 44.0224C91.1388 43.9621 90.9304 43.9178 90.7195 43.8899C90.5011 43.8601 90.2808 43.8474 90.0604 43.8521C89.8336 43.8574 89.6074 43.879 89.3836 43.9166C89.1606 43.9587 88.9408 44.016 88.7257 44.0881C88.517 44.1603 88.3141 44.2485 88.119 44.3519C87.9307 44.4493 87.7502 44.5609 87.579 44.6859C87.4142 44.8065 87.2586 44.9393 87.1137 45.0833C86.8433 45.3488 86.6083 45.6482 86.4146 45.9739C86.2462 46.2589 86.1099 46.5617 86.0083 46.8767C85.8615 47.3379 85.7864 47.8188 85.7856 48.3028C85.7856 48.6479 85.8079 48.8405 85.7856 48.8449C85.7634 48.8494 85.6999 48.6635 85.6587 48.3095C85.6064 47.8064 85.6476 47.298 85.7801 46.8099C85.9774 46.0763 86.3609 45.406 86.8933 44.864C87.046 44.7061 87.2109 44.5606 87.3865 44.4287C87.7575 44.1455 88.1707 43.9223 88.611 43.7675C88.8426 43.6872 89.08 43.625 89.3213 43.5816C89.5626 43.5404 89.8067 43.517 90.0515 43.5114C90.2895 43.5092 90.5273 43.5248 90.7629 43.5582C90.9891 43.5913 91.2124 43.6419 91.4308 43.7096C91.6409 43.7732 91.8456 43.8532 92.0431 43.9489C92.4088 44.1252 92.7492 44.3499 93.055 44.6169C93.32 44.8474 93.5562 45.1091 93.7586 45.3961C94.0519 45.8083 94.266 46.2715 94.3898 46.7621C94.4777 47.1094 94.48 47.3064 94.461 47.3098Z" fill="#0CBBE2"/>
<path d="M90.9922 50.6061L91.1135 51.3642L90.4378 51.4755L90.3198 50.7385C89.6429 50.8053 88.9661 50.6985 88.5475 50.4669L88.788 49.5819C89.2198 49.7897 89.6979 49.8825 90.1762 49.8513L89.9947 48.7202C89.2154 48.659 88.336 48.5421 88.1812 47.5747C88.0699 46.8578 88.4885 46.1587 89.5383 45.8659L89.418 45.1145L90.0949 45.0032L90.2129 45.7401C90.701 45.6891 91.1942 45.7543 91.6523 45.9305L91.4475 46.8211C91.0996 46.6865 90.7282 46.6229 90.3554 46.6341L90.5402 47.7851C91.3194 47.8408 92.1844 47.9588 92.3369 48.9128C92.4516 49.6186 92.0341 50.3099 90.9922 50.6061ZM89.8422 47.7261L89.6874 46.7654C89.3423 46.9035 89.231 47.1228 89.2666 47.3465C89.3023 47.5703 89.5238 47.6794 89.8422 47.7261ZM91.2671 49.1733C91.2282 48.9362 91.0122 48.8394 90.7105 48.7837L90.8597 49.7177C91.1781 49.5863 91.2972 49.3837 91.2627 49.1711L91.2671 49.1733Z" fill="#0CBBE2"/>
</g>
<defs>
<clipPath id="clip0_585_66338">
<rect width="115" height="89.1437" fill="white" transform="translate(0.5)"/>
</clipPath>
<clipPath id="clip1_585_66338">
<rect width="115" height="1.05528" fill="white" transform="translate(-0.142456 88.3373)"/>
</clipPath>
</defs>
</svg>
